<?xml version="1.0" encoding="UTF-8" standalone="no"?>
<!-- Created with Inkscape (http://www.inkscape.org/) -->

<svg
   xmlns:dc="http://purl.org/dc/elements/1.1/"
   xmlns:cc="http://creativecommons.org/ns#"
   xmlns:rdf="http://www.w3.org/1999/02/22-rdf-syntax-ns#"
   xmlns:svg="http://www.w3.org/2000/svg"
   xmlns="http://www.w3.org/2000/svg"
   xmlns:xlink="http://www.w3.org/1999/xlink"
   xmlns:sodipodi="http://sodipodi.sourceforge.net/DTD/sodipodi-0.dtd"
   xmlns:inkscape="http://www.inkscape.org/namespaces/inkscape"
   id="svg4254"
   version="1.1"
   inkscape:version="0.91 r13725"
   width="1000"
   height="50"
   viewBox="0 0 1000 50"
   sodipodi:docname="top5.svg"
   inkscape:export-filename="/home/gcmq/web/homepage/index/pic/top.png"
   inkscape:export-xdpi="89.318275"
   inkscape:export-ydpi="89.318275">
  <metadata
     id="metadata4260">
    <rdf:RDF>
      <cc:Work
         rdf:about="">
        <dc:format>image/svg+xml</dc:format>
        <dc:type
           rdf:resource="http://purl.org/dc/dcmitype/StillImage" />
        <dc:title />
      </cc:Work>
    </rdf:RDF>
  </metadata>
  <defs
     id="defs4258">
    <marker
       inkscape:isstock="true"
       style="overflow:visible"
       id="Arrow1Sstart"
       refX="0"
       refY="0"
       orient="auto"
       inkscape:stockid="Arrow1Sstart">
      <path
         inkscape:connector-curvature="0"
         transform="matrix(0.2,0,0,0.2,1.2,0)"
         style="fill:#00a618;fill-opacity:1;fill-rule:evenodd;stroke:#00620e;stroke-width:1pt;stroke-opacity:1"
         d="M 0,0 5,-5 -12.5,0 5,5 0,0 Z"
         id="path6823" />
    </marker>
    <marker
       inkscape:isstock="true"
       style="overflow:visible"
       id="DiamondLstart"
       refX="0"
       refY="0"
       orient="auto"
       inkscape:stockid="DiamondLstart">
      <path
         inkscape:connector-curvature="0"
         transform="matrix(0.8,0,0,0.8,5.6,0)"
         style="fill:#00a618;fill-opacity:1;fill-rule:evenodd;stroke:#00620e;stroke-width:1pt;stroke-opacity:1"
         d="M 0,-7.0710768 -7.0710894,0 0,7.0710589 7.0710462,0 0,-7.0710768 Z"
         id="path6899" />
    </marker>
    <marker
       inkscape:isstock="true"
       style="overflow:visible"
       id="Tail"
       refX="0"
       refY="0"
       orient="auto"
       inkscape:stockid="Tail">
      <g
         style="fill:#00a618;fill-opacity:1;stroke:#00620e;stroke-opacity:1"
         transform="scale(-1.2,-1.2)"
         id="g6847">
        <path
           inkscape:connector-curvature="0"
           style="fill:#00a618;fill-opacity:1;fill-rule:evenodd;stroke:#00620e;stroke-width:0.80000001;stroke-linecap:round;stroke-opacity:1"
           d="M -3.8048674,-3.9585227 0.54352094,0"
           id="path6849" />
        <path
           inkscape:connector-curvature="0"
           style="fill:#00a618;fill-opacity:1;fill-rule:evenodd;stroke:#00620e;stroke-width:0.80000001;stroke-linecap:round;stroke-opacity:1"
           d="M -1.2866832,-3.9585227 3.0617053,0"
           id="path6851" />
        <path
           inkscape:connector-curvature="0"
           style="fill:#00a618;fill-opacity:1;fill-rule:evenodd;stroke:#00620e;stroke-width:0.80000001;stroke-linecap:round;stroke-opacity:1"
           d="M 1.3053582,-3.9585227 5.6537466,0"
           id="path6853" />
        <path
           inkscape:connector-curvature="0"
           style="fill:#00a618;fill-opacity:1;fill-rule:evenodd;stroke:#00620e;stroke-width:0.80000001;stroke-linecap:round;stroke-opacity:1"
           d="M -3.8048674,4.1775838 0.54352094,0.21974226"
           id="path6855" />
        <path
           inkscape:connector-curvature="0"
           style="fill:#00a618;fill-opacity:1;fill-rule:evenodd;stroke:#00620e;stroke-width:0.80000001;stroke-linecap:round;stroke-opacity:1"
           d="M -1.2866832,4.1775838 3.0617053,0.21974226"
           id="path6857" />
        <path
           inkscape:connector-curvature="0"
           style="fill:#00a618;fill-opacity:1;fill-rule:evenodd;stroke:#00620e;stroke-width:0.80000001;stroke-linecap:round;stroke-opacity:1"
           d="M 1.3053582,4.1775838 5.6537466,0.21974226"
           id="path6859" />
      </g>
    </marker>
    <marker
       inkscape:isstock="true"
       style="overflow:visible"
       id="Arrow1Mstart"
       refX="0"
       refY="0"
       orient="auto"
       inkscape:stockid="Arrow1Mstart">
      <path
         inkscape:connector-curvature="0"
         transform="matrix(0.4,0,0,0.4,4,0)"
         style="fill:#00a618;fill-opacity:1;fill-rule:evenodd;stroke:#00620e;stroke-width:1pt;stroke-opacity:1"
         d="M 0,0 5,-5 -12.5,0 5,5 0,0 Z"
         id="path6817" />
    </marker>
    <marker
       inkscape:isstock="true"
       style="overflow:visible"
       id="marker11476"
       refX="0"
       refY="0"
       orient="auto"
       inkscape:stockid="Arrow1Lend">
      <path
         inkscape:connector-curvature="0"
         transform="matrix(-0.8,0,0,-0.8,-10,0)"
         style="fill:#00a618;fill-opacity:1;fill-rule:evenodd;stroke:#00620e;stroke-width:1pt;stroke-opacity:1"
         d="M 0,0 5,-5 -12.5,0 5,5 0,0 Z"
         id="path11478" />
    </marker>
    <marker
       inkscape:isstock="true"
       style="overflow:visible"
       id="marker11426"
       refX="0"
       refY="0"
       orient="auto"
       inkscape:stockid="Arrow1Lstart">
      <path
         inkscape:connector-curvature="0"
         transform="matrix(0.8,0,0,0.8,10,0)"
         style="fill:#00a618;fill-opacity:1;fill-rule:evenodd;stroke:#00620e;stroke-width:1pt;stroke-opacity:1"
         d="M 0,0 5,-5 -12.5,0 5,5 0,0 Z"
         id="path11428" />
    </marker>
    <marker
       inkscape:stockid="Arrow1Lend"
       orient="auto"
       refY="0"
       refX="0"
       id="Arrow1Lend"
       style="overflow:visible"
       inkscape:isstock="true">
      <path
         inkscape:connector-curvature="0"
         id="path6814"
         d="M 0,0 5,-5 -12.5,0 5,5 0,0 Z"
         style="fill:#00a618;fill-opacity:1;fill-rule:evenodd;stroke:#00620e;stroke-width:1pt;stroke-opacity:1"
         transform="matrix(-0.8,0,0,-0.8,-10,0)" />
    </marker>
    <marker
       inkscape:stockid="Arrow1Lstart"
       orient="auto"
       refY="0"
       refX="0"
       id="marker7113"
       style="overflow:visible"
       inkscape:isstock="true">
      <path
         inkscape:connector-curvature="0"
         id="path7115"
         d="M 0,0 5,-5 -12.5,0 5,5 0,0 Z"
         style="fill:#00a618;fill-opacity:1;fill-rule:evenodd;stroke:#00620e;stroke-width:1pt;stroke-opacity:1"
         transform="matrix(0.8,0,0,0.8,10,0)" />
    </marker>
    <marker
       inkscape:stockid="Arrow1Lstart"
       orient="auto"
       refY="0"
       refX="0"
       id="marker7081"
       style="overflow:visible"
       inkscape:isstock="true">
      <path
         inkscape:connector-curvature="0"
         id="path7083"
         d="M 0,0 5,-5 -12.5,0 5,5 0,0 Z"
         style="fill:#1e9100;fill-opacity:1;fill-rule:evenodd;stroke:#1e9100;stroke-width:1pt;stroke-opacity:1"
         transform="matrix(0.8,0,0,0.8,10,0)" />
    </marker>
    <marker
       inkscape:stockid="Arrow1Lstart"
       orient="auto"
       refY="0"
       refX="0"
       id="Arrow1Lstart"
       style="overflow:visible"
       inkscape:isstock="true">
      <path
         inkscape:connector-curvature="0"
         id="path6811"
         d="M 0,0 5,-5 -12.5,0 5,5 0,0 Z"
         style="fill:#00a618;fill-opacity:1;fill-rule:evenodd;stroke:#00620e;stroke-width:1pt;stroke-opacity:1"
         transform="matrix(0.8,0,0,0.8,10,0)" />
    </marker>
  </defs>
  <sodipodi:namedview
     pagecolor="#ffffff"
     bordercolor="#666666"
     borderopacity="1"
     objecttolerance="10"
     gridtolerance="10"
     guidetolerance="10"
     inkscape:pageopacity="1"
     inkscape:pageshadow="2"
     inkscape:window-width="1360"
     inkscape:window-height="692"
     id="namedview4256"
     showgrid="false"
     inkscape:zoom="2.8284271"
     inkscape:cx="118.85596"
     inkscape:cy="-2.1652674"
     inkscape:window-x="0"
     inkscape:window-y="24"
     inkscape:window-maximized="1"
     inkscape:current-layer="layer2"
     showguides="true"
     inkscape:guide-bbox="true"
     inkscape:snap-bbox="false"
     inkscape:bbox-paths="true"
     inkscape:snap-bbox-edge-midpoints="true"
     inkscape:bbox-nodes="true"
     inkscape:snap-bbox-midpoints="true">
    <inkscape:grid
       type="xygrid"
       id="grid4159" />
    <sodipodi:guide
       position="0,0"
       orientation="0,960"
       id="guide4153" />
    <sodipodi:guide
       position="1000,0"
       orientation="1,0"
       id="guide4155"
       inkscape:label=""
       inkscape:color="rgb(0,0,255)" />
    <sodipodi:guide
       position="161.22035,49.143921"
       orientation="0,-960"
       id="guide4157" />
    <sodipodi:guide
       position="0,50"
       orientation="50,0"
       id="guide4159" />
  </sodipodi:namedview>
  <g
     inkscape:groupmode="layer"
     id="layer2"
     inkscape:label="Layer 2"
     style="display:inline"
     transform="translate(0,-116.25)">
    <g
       style="display:inline;opacity:1"
       id="g4391-3-7"
       transform="matrix(0.30188279,0,0,0.26575718,-195.0871,112.69358)">
      <path
         style="fill:#00bfff;fill-opacity:1;fill-rule:evenodd;stroke:none;stroke-width:1px;stroke-linecap:butt;stroke-linejoin:miter;stroke-opacity:1"
         d="m 1141.579,61.447411 162.7628,0 0,30.814584 -162.7628,0 z"
         id="rect4368-6-4"
         inkscape:connector-curvature="0" />
      <path
         style="display:inline;fill:#a0d8ef;fill-opacity:1;fill-rule:evenodd;stroke:none;stroke-width:1px;stroke-linecap:butt;stroke-linejoin:miter;stroke-opacity:1"
         d="m 1141.579,30.632729 162.7628,0 0,30.814584 -162.7628,0 z"
         id="rect4368-7-7-5"
         inkscape:connector-curvature="0" />
      <path
         style="display:inline;fill:#00ff00;fill-opacity:1;fill-rule:evenodd;stroke:none;stroke-width:1px;stroke-linecap:butt;stroke-linejoin:miter;stroke-opacity:1"
         d="m 1141.579,92.2621 162.7628,0 0,30.81458 -162.7628,0 z"
         id="rect4368-5-5-2"
         inkscape:connector-curvature="0" />
    </g>
  </g>
  <g
     inkscape:groupmode="layer"
     id="layer1"
     inkscape:label="Layer 1"
     style="display:inline;opacity:1"
     transform="translate(0,-116.25)">
    <g
       transform="matrix(0.1134425,0,0,0.1134425,1.454335,99.647683)"
       inkscape:label="レイヤー 1"
       id="layer1-6"
       style="opacity:1">
      <path
         style="fill:#000000"
         d=""
         id="path4149"
         inkscape:connector-curvature="0" />
      <path
         style="fill:#000000"
         d=""
         id="path4147"
         inkscape:connector-curvature="0" />
      <g
         id="g11893"
         style="">
        <g
           id="g11635"
           transform="translate(3.434626,0)"
           style="">
          <path
             inkscape:connector-curvature="0"
             id="path11282"
             d="m 267.18316,162.12481 -0.58203,1.91211 23.8125,7.25977 21.69336,11.99804 10.79297,9.36719 -10.63476,-5.88281 -2.91797,-1.61524 -19.04883,-10.53711 -0.96875,1.75 19.04883,10.53711 1.74609,0.9668 -0.13672,0.1582 6.09571,5.28907 -11.67774,-6.45899 -12.92773,-7.15039 -0.96875,1.75 12.92968,7.15234 7.2129,3.99024 -0.084,0.0957 -11.36719,-6.28711 -4.57422,-2.53125 -0.96875,1.75 4.57422,2.53125 15.26758,8.44531 -1.20312,1.38477 3.94726,3.42578 11.41602,9.90625 -0.26367,0.30078 -5.83399,-5.0625 -11.16015,-9.68359 -1.31055,1.50976 11.16015,9.6836 5.54297,4.8125 -0.10156,0.0762 -9.13086,-7.92188 -3.94726,-3.42578 -1.31055,1.50976 3.94726,3.42579 6.80079,5.90039 -0.6211,0.71484 3.86133,3.34961 -0.082,0.0957 -7.46875,-6.48047 -3.94727,-3.42383 -1.31054,1.50977 3.94726,3.42578 3.86133,3.35156 -0.71094,0.82031 11.90625,10.33204 0.002,0.004 3.0039,3.97851 -0.7539,0.57031 3.08007,4.08008 -0.10156,0.0762 -5.95703,-7.89062 -3.14844,-4.17188 -1.5957,1.20508 3.14844,4.17188 3.08007,4.08007 -0.86718,0.6543 1.90234,2.52148 -0.53516,0.4043 3.08008,4.08008 -0.0996,0.0762 -5.95703,-7.89063 -3.14844,-4.17187 -1.59765,1.20508 3.15039,4.17187 3.08008,4.08008 -0.86719,0.6543 5.75195,7.62109 6.09766,8.07813 0.25586,0.54687 -9.33008,-12.35937 -1.5957,1.20507 2.8125,3.72657 -0.44532,0.20703 2.2129,4.73633 2.16406,4.63086 -0.98242,0.45898 4.04296,8.65234 3.95313,8.46094 -0.11328,0.0527 -5.97656,-12.78711 -1.81055,0.84765 3.81055,8.15625 -0.85743,0.40039 6.54297,13.99805 2.07032,4.42969 0,0.002 1.10546,4.76758 1.74415,7.52539 -0.12305,0.0293 -2.84571,-12.28125 -10.6289,-22.74414 -1.8125,0.84765 10.54101,22.55274 1.84375,7.95703 -0.82226,0.18945 -1.1543,-4.97851 -1.94922,0.45117 3.48828,15.05078 2.13282,9.20117 0.0117,0.60742 -1.18946,-5.1289 -0.65429,0.15234 -3.02149,-13.03906 -1.17969,-5.0918 -1.05859,0.24609 -1.1543,-4.98046 -1.94726,0.45117 3.48828,15.05273 2.13086,9.19922 0.0117,0.60156 -1.16407,-5.01953 -0.0234,-0.10156 -5.64453,-24.35352 -1.94922,0.45118 5.62109,24.25195 0.45703,24.89062 0.0469,2.61328 -1.89844,0.0332 0.45703,24.89063 -4.73047,24.44141 -0.59375,3.07227 -3.5332,8.34179 2.9414,-15.20508 4.76954,-24.64648 -0.45899,-25.10157 -2,0.0371 0.45508,24.89063 -4.72852,24.44141 -4.72851,24.43945 -0.002,0.006 0,0.002 -4.83204,11.40821 -4.83398,11.41211 -14.20117,20.32031 -11.24024,10.5 8.87305,-12.69336 14.38086,-20.57813 9.83008,-23.21484 0.0195,-0.10351 0.002,0 4.74805,-24.54493 4.76953,-24.64649 -0.45898,-25.10156 -2,0.0371 0.45507,24.89063 -4.72851,24.44141 -4.73047,24.44726 -9.66602,22.82227 -8.81054,12.60547 6.03906,-14.25977 9.78906,-23.11719 4.76953,-24.64843 -1.96484,-0.37891 -4.72852,24.44141 -9.70703,22.92383 -9.70898,22.92382 -14.20117,20.31836 -18.11524,16.92188 -21.23437,12.78515 -0.004,0.002 -11.71484,4.04492 -11.7168,4.04492 -24.60156,3.04297 -24.69336,-2.13867 -0.004,0 -23.71289,-7.22852 -0.002,0 -21.7832,-12.05078 -0.9668,1.75 21.9668,12.15234 0.10156,0.0312 23.91211,7.28907 0.10156,0.0312 0.002,0 23.91211,7.28711 25.11524,2.17578 0.10547,-0.0137 0,0.002 24.81054,-3.06836 0.10352,-0.0137 24.8125,-3.06836 23.82812,-8.22656 0.0899,-0.0547 10.70898,-6.44727 10.71094,-6.44726 0.0898,-0.0547 21.41797,-12.89453 18.42188,-17.20899 0.0605,-0.0859 7.16211,-10.2461 7.16016,-10.24414 0.0605,-0.0859 0,-0.002 14.32031,-20.49023 9.83203,-23.21485 0.0195,-0.10156 4.76953,-24.64844 0,-0.008 4.74805,-24.53711 -0.46094,-25.20703 -0.0234,-0.10157 -5.64453,-24.35546 -0.0234,-0.10157 -5.64453,-24.35351 -10.67578,-22.83985 -0.0625,-0.084 -15.0625,-19.95312 -0.0625,-0.084 -0.002,-0.002 -15.06055,-19.95117 -19.04101,-16.52344 -0.0918,-0.0508 -21.78516,-12.05078 -0.0488,-0.0273 -0.043,-0.0234 -21.875,-12.10156 -0.0918,-0.0508 -24.01563,-7.31837 z m 53.3379,25.82422 13.46093,7.44726 18.72266,16.24805 9.26562,12.27539 -10.78906,-9.36328 -0.0801,-0.0703 -0.82421,-0.71484 -18.05665,-15.66993 -0.90625,-0.78515 -10.79296,-9.36719 z m -0.99219,5.13281 10.63281,5.88086 0.002,0.002 0.74414,0.64648 7.5,6.50782 7.02344,6.0957 3.53321,3.06641 0.74609,0.64648 0.002,0.002 7.31836,9.69531 -6.84375,-5.9375 -0.0781,-0.0684 0,-0.002 -4.77344,-4.14062 -9.95508,-8.63867 -4.1543,-3.60547 -4.85156,-4.21094 -0.004,-0.002 -6.84179,-5.9375 z m -5.33203,3.91797 0.52539,0.29102 6.52148,5.6582 4.61524,4.00586 -0.082,0.0937 -8.22071,-7.13477 -3.35937,-2.91406 z m 6.50976,1.17188 2.64258,1.46289 3.08203,2.67382 2.35938,2.04688 0.002,0.002 1.81836,2.4082 -9.44336,-8.19336 -0.46094,-0.40039 z m 15.35352,12.49218 9.17383,7.96094 1.8164,2.40625 -4.96093,-4.30469 -1.96094,-1.70117 -2.25,-1.95312 -0.002,0 -1.8164,-2.40821 z m 1.95508,7.68946 1.53125,1.33007 2.36328,2.05079 0.002,0 0,0.002 1.87891,2.48828 1.22265,1.62109 -3.89258,-3.37891 -0.002,-0.002 -0.002,-0.002 -3.10156,-4.10937 z m -2.0625,3.71484 2.89648,2.51367 0.64844,0.85938 -0.46875,0.35351 -0.76172,-0.66211 -0.002,0 -2.3125,-3.06445 z m 21.02539,0.16797 10.78906,9.36133 14.93555,19.78515 10.49609,22.45899 3.4707,14.97656 -6.59765,-14.11914 -0.004,-0.006 -10.58203,-22.64258 -13.11133,-17.36719 -0.004,-0.008 -9.39257,-12.43945 z m -0.9961,5.12695 6.8418,5.9375 0.006,0.006 0.004,0.004 1.8125,2.40234 3.83593,8.20899 -3.10547,-4.11328 -4.31445,-5.71485 -1.97265,-2.61328 -3.10743,-4.11718 z m -4.47265,2.70117 3.89258,3.37696 0.002,0.004 9.42969,12.49023 0.002,0.004 2.18164,4.66992 -6.18164,-8.18945 -6.22266,-8.24414 -0.002,-0.002 -3.10156,-4.10938 z m 18.93554,13.32813 7.31836,9.69531 6.51172,13.93359 -7.3164,-9.6914 -0.002,0 0,-0.002 -0.002,-0.002 0,-0.002 -0.002,-0.002 -2.67383,-5.72266 -3.83399,-8.20703 z m -31.69336,9.25976 1.78711,2.36719 -0.44531,0.20703 2.16406,4.63282 -0.11328,0.0527 -3.39258,-7.25977 z m 33.37696,1.59961 1.2207,1.61719 0.86719,1.14844 1.01367,1.34375 0.002,0 0,0.002 3.19336,6.83203 0.64453,1.37695 -3.10546,-4.11133 -0.002,-0.002 0,-0.002 -0.002,-0.004 -3.83203,-8.20117 z m -4.51953,3.99024 2.60742,3.45117 2.84765,3.77344 0.002,0.002 0,0.002 0.81445,1.74219 -3.10351,-4.11133 0,-0.002 -0.002,-0.002 -0.0625,-0.084 -2.28711,-3.0293 -0.002,-0.002 -0.002,-0.004 -0.8125,-1.73633 z m -22.69727,2.57031 1.65234,2.18945 1.5254,3.26172 -0.51563,0.24219 -1.33789,-2.86328 -0.002,0 -1.32227,-2.83008 z m 36.11914,5.23242 7.31641,9.69141 0,0.002 10.49609,22.45703 5.59766,24.15039 0.45312,24.78516 -2.91992,15.09765 -0.28516,-15.48047 -0.002,-0.10546 -0.45703,-24.9961 -5.69141,-24.55859 -0.0449,-0.0957 -7.86523,-16.82617 0,-0.002 -0.0449,-0.0957 -2.67579,-5.72461 -0.043,-0.0937 -0.002,-0.004 -2.57031,-5.50196 -1.26172,-2.69922 z m -0.99219,5.13281 3.10157,4.10938 0.002,0.002 0.0254,0.0547 2.56055,5.47851 0.002,0.006 1.16406,5.01954 -0.25586,-0.54883 -0.002,-0.004 -0.0449,-0.0937 -0.96289,-2.0625 -5.29297,-11.32422 -0.0449,-0.0957 -0.25196,-0.54102 z m -5.18945,0.63672 3.10547,4.11328 0.002,0.004 2.58399,5.53125 1.16406,5.02344 -0.25586,-0.54687 0,-0.002 -6.3457,-13.57617 -0.25391,-0.54688 z m 14.95117,17.72266 3.83594,8.20703 5.59766,24.15039 0.2832,15.38086 -2.74609,-11.8418 -0.11524,-6.3164 -3.33594,-14.39453 -2.35546,-10.16407 -1.16407,-5.02148 z m -5.1875,0.63867 2.18164,4.66797 3.26758,14.0957 0.20508,0.88868 -2.17969,-4.66602 -2.31054,-9.96289 -1.16407,-5.02344 z m -3.57031,4.63867 0.81445,1.74024 0,0.004 1.16407,5.01758 -0.81446,-1.74024 0,-0.004 -0.002,0 -1.16211,-5.01758 z m 2.57812,0.49219 0.25586,0.54883 0.13672,0.58594 -0.25586,-0.54297 -0.002,-0.004 0,-0.002 -0.13477,-0.58594 z m -2.39062,9.73047 0.25195,0.53906 0.002,0.004 0.86523,3.73047 -0.25391,-0.53906 0,-0.002 0,-0.002 -0.86523,-3.73047 z m 4.69922,0.23047 0.25586,0.54883 1.16406,5.02148 -0.25391,-0.54297 -0.002,-0.002 0,-0.002 -0.002,-0.002 -0.11524,-0.50195 -1.04687,-4.51953 z m -0.3711,9.02734 0.81446,1.74414 0,0.002 1.61914,6.98242 1.17969,5.08985 1.61914,6.98437 0,0.002 0.0352,1.92578 -2.04687,-8.83007 -0.0234,-0.10157 -1.25391,-5.41015 -0.63281,-2.73438 -0.42187,-1.8164 -0.0234,-0.10157 -0.49024,-2.11523 -0.375,-1.62109 z m 4.70118,0.24024 0.16015,0.33984 0.006,0.37695 -0.16615,-0.71679 z m -5.99024,3.60937 0.25196,0.54102 0.002,0.006 2.25976,9.75 0,0.002 0,0.002 0.0117,0.5957 -0.67383,-2.90234 -1.85156,-7.99414 z m 4.9961,1.51953 0.25586,0.54492 0,0.002 1.08203,4.66602 0,0.002 0.0117,0.60156 -1.34961,-5.8164 z m -44.30664,0.67969 1.16406,5.02344 0.26953,14.66797 0.15039,8.26953 -0.84375,0.0156 -0.0937,-5.11133 -0.22852,0.004 -0.13476,-7.38672 -0.2832,-15.48242 z m 48.67382,1.40625 0.46289,0.99023 0.68165,2.94141 0.16601,9.05859 -1.16406,-5.01757 0,-0.004 0,-0.002 -0.14649,-7.9668 z m -16.14062,2.22852 0.13672,0.58789 0.0117,0.59961 -0.13672,-0.58399 0,-0.002 0,-0.002 0,-0.002 -0.0117,-0.59766 z m -29.38477,0.53125 0.13672,0.58789 0.0117,0.60937 -0.13672,-0.58789 -0.0117,-0.60937 z m 4.57422,2.53515 0.13672,0.58985 0.0117,0.60351 -0.13672,-0.58984 -0.0117,-0.60352 z m 32.24219,2.79297 0.86719,3.73633 0,0.002 0.0742,4.0625 -0.86719,-3.73828 -0.0742,-4.0625 z m -36.62695,4.90234 0.13476,0.58594 0.17383,9.44336 0.2832,15.44727 0.17188,9.44336 -1.7207,8.89062 -0.0938,-5.14843 0,-0.002 0,-0.004 1.60547,-8.29883 -0.002,-0.10352 -0.45703,-24.99609 -0.0957,-5.25782 z m 48.65234,0.3086 2.74414,11.8418 0.45313,24.7832 0,0.002 -2.35352,12.16797 -2.35547,12.16993 -9.66601,22.82812 -8.8125,12.60742 6.03906,-14.26172 0.041,-0.0957 0,-0.002 9.74805,-23.01953 4.78906,-24.75196 -0.002,-0.10351 -0.32422,-17.78321 -0.13281,-7.21289 -0.002,-0.10547 -0.16602,-9.06445 z m -44.08008,2.2168 0.13672,0.58789 0,0.004 0.17188,9.4414 0.17187,9.39258 0.002,0.0801 0.0117,0.64453 -0.11328,0.5918 -0.28515,-15.48047 -0.0957,-5.26172 z m 36.08594,0.55078 1.16406,5.01953 0,0.002 0.38281,20.875 0,0.004 -2.92187,15.09766 -0.0937,-5.15821 1.94141,-10.03125 -0.1875,-10.22266 -0.27344,-14.98437 0,-0.002 -0.0117,-0.59961 z m 5,1.52539 1.16406,5.01758 0,0.002 0.22656,12.39257 0.22657,12.39258 -4.70899,24.33789 -5.99609,14.16211 2.30664,-11.92774 0.002,-0.002 2.46289,-5.81836 4.78907,-24.75 -0.002,-0.10547 -0.18554,-10.11718 -0.002,-0.10547 -0.041,-2.27539 -0.1875,-10.22266 -0.041,-2.27539 -0.002,-0.10547 0,-0.002 -0.0117,-0.59765 z m -36.86719,9.35351 0.0371,2.0293 0.0566,3.125 -0.72851,3.76562 0,-0.0352 -0.0645,-3.47656 0,-0.0156 -0.0293,-1.62695 0.72851,-3.76563 z m 23.70703,8.36133 0.2461,1.06055 0,0.002 0.0547,3.01953 0,0.002 -0.72656,3.76172 -0.0566,-2.98438 -0.0391,-2.16797 0,-0.002 0.52148,-2.6914 z m 6.61719,5.79297 0.0117,0.60156 -0.11328,0.58594 -0.0117,-0.60156 0.11328,-0.58594 z m -30.05273,0.61719 0.01,0.60742 0,0.002 -0.72656,3.76171 -0.0117,-0.60742 0.72852,-3.76367 z m 27.31445,0.90429 0.2207,0.95899 -0.57812,2.99805 -0.0371,-1.92578 0.39453,-2.03126 z m -31.13477,2.66212 0.0957,5.15429 0,0.004 -1.31641,6.79687 -0.0742,-4.06445 -0.002,-0.10351 -0.0176,-0.98243 0,-0.006 1.20117,-6.20313 0,-0.008 0.11328,-0.58789 z m 27.73438,3.72461 0.01,0.59961 -0.72656,3.76562 -0.0117,-0.59961 0,-0.002 0,-0.002 0,-0.002 0.72852,-3.75976 z m -8.39258,1.0332 0.0937,5.1543 0,0.004 -2.97461,15.37305 0,0.002 -2.00976,4.7461 0.97851,-5.0625 0.72266,-3.73438 1.46679,-7.58398 1.60743,-8.30274 0,-0.002 0.11523,-0.59375 z m 12.5918,1.09375 0.01,0.59961 -0.97851,5.06445 -0.0117,-0.59961 0,-0.002 0,-0.002 0,-0.002 0.98047,-5.05859 z m -8.01758,1.43945 0.0937,5.15039 0,0.002 0,0.002 -0.24219,1.24609 -1.11914,5.79102 -2.35547,12.16992 -0.002,0.004 -1.58399,3.74023 3.91211,-20.2168 -0.002,-0.10351 -0.0176,-0.98633 0,-0.002 0,-0.002 0,-0.002 1.31641,-6.79297 z m -33.21875,3.43164 0.0117,0.60547 -2.10938,10.90235 -0.23437,0.55468 2.33203,-12.0625 z m 37.22461,3.2168 0.0351,1.92773 0,0.002 0,0.002 -0.24218,1.24609 -0.57032,2.94922 -0.55078,2.8418 -2.35351,12.16797 0,0.002 -0.002,0.004 -0.74805,1.76562 3.70312,-19.13672 0,-0.008 0.72852,-3.76367 z m -27.65039,0.83789 0.0117,0.59961 -1.36133,7.03906 -2.35547,12.16992 -3.5332,8.34571 0.97851,-5.0625 3.29883,-7.78711 0.0195,-0.10352 2.94141,-15.20117 z m 31.84765,1.29102 0.008,0.38476 -0.15039,0.35352 0.14257,-0.73828 z m -6.9414,0.86523 0.0117,0.60156 0,0.002 -4.71094,24.34375 -8.14258,19.22656 -8.80859,12.60156 2.00976,-4.74609 5.85547,-8.37891 9.83008,-23.21484 0.0195,-0.10157 0.002,0 0.97071,-5.02343 0.002,-0.006 0.0195,-0.10352 0.78711,-4.07031 2.1543,-11.13086 z m -20.95899,1.26758 0.0117,0.60156 -0.91015,4.70313 0,0.002 -0.23438,0.55273 1.13281,-5.85937 z m 3.0918,1.01172 0.0488,2.63281 -1.05469,2.49023 0.97656,-5.05273 0,-0.002 0.002,-0.004 0.0273,-0.0645 z m -20.38867,0.5039 -1.12891,5.82813 -1.17968,6.09961 0,0.002 -2.00977,4.74414 2.30859,-11.92773 2.00977,-4.7461 z m 42.20312,0.64063 0.0117,0.60351 0,0.002 -0.9082,4.69726 -0.002,0.002 -0.23438,0.55664 0.56641,-2.93164 0.5664,-2.92969 z m -15.5039,3.4375 -0.11524,0.5918 -0.23437,0.55078 0.11328,-0.58594 0.002,-0.006 0.23438,-0.55078 z m 18.64453,0.24609 0.0195,1.0918 -0.57422,2.9668 -3.53125,8.34179 0.97852,-5.06445 3.10742,-7.33594 z m -26.29688,6.21485 -0.11328,0.59375 -1.49414,3.52929 0.11328,-0.59179 0,-0.002 0.002,0 1.49218,-3.52929 z m -19.19726,1.42187 -1.7207,8.89453 -0.23438,0.55274 1.7207,-8.89649 0.23438,-0.55078 z m 14.7207,1.27539 -0.97851,5.05664 0,0.002 -2.69922,6.37304 0.76953,-3.98047 0.002,-0.006 0.0195,-0.10351 0.1875,-0.96875 0,-0.002 2.42383,-5.72071 0.041,-0.0977 0.23437,-0.55274 z m 8.14063,0.25586 -0.11329,0.58985 0,0.002 0,0.002 -2.00976,4.74414 0.11523,-0.5918 0,-0.004 2.00782,-4.74219 z m -28.47461,0.11719 -2.30664,11.92383 0,0.002 -4.83204,11.41406 -4.83203,11.40625 -0.002,0.006 -4.83984,6.92383 -9.36328,13.39453 -18.11524,16.92383 -13.17773,7.93359 11.31836,-10.57226 0.0762,-0.0723 18.26953,-17.06445 14.44141,-20.66406 0.041,-0.0977 4.875,-11.50977 4.875,-11.50976 0.041,-0.0977 3.53125,-8.33984 z m 11.04492,3.36328 -0.11524,0.5918 -3.80273,8.98047 -2.19336,5.17968 0.0566,-0.29492 0.0566,-0.29492 0.002,-0.004 5.9961,-14.1582 z m 37.67969,0.85547 -2.30664,11.92578 0,0.002 -4.83399,11.41211 -4.83203,11.41407 -14.20117,20.31835 -18.11719,16.92383 -13.17383,7.93164 11.31446,-10.57031 0.0762,-0.0723 18.26953,-17.06445 14.4414,-20.66406 0.041,-0.0977 4.875,-11.50976 4.875,-11.50977 0.041,-0.0976 3.53125,-8.3418 z m -4.47461,2.6875 -0.98047,5.06641 0,0.002 -9.66797,22.82812 -0.002,0.002 -14.19922,20.3164 -11.24024,10.5 6.96289,-9.96093 4.61719,-4.3125 14.44141,-20.66407 0.041,-0.0957 9.74805,-23.02149 0.041,-0.0977 0.23828,-0.5625 z m -42.62305,0.85742 -1.7207,8.89453 0,0.002 -1.17578,2.77734 -5.18946,7.42383 6.03516,-14.25391 0.041,-0.0957 0,-0.002 2.00977,-4.74609 z m 17.9375,1.55859 -0.11328,0.5879 0,0.002 -0.002,0.004 -4.83008,11.40821 -4.83399,11.41406 -14.20312,20.31836 -3.76367,3.51562 0.40429,-0.57812 0.0586,-0.0859 4.72461,-6.75781 9.59765,-13.73242 4.84571,-6.93164 0.041,-0.0957 8.07422,-19.06836 z m 3.15039,4.16797 -0.11523,0.5918 -3.90625,9.22461 -0.34571,0.49414 4.36719,-10.31055 z m 2.30469,4.25586 -0.20703,1.07031 -1.17774,2.78321 -0.002,0.002 -2.19531,3.14063 2.01172,-4.75 0.002,0 1.56836,-2.2461 z m -23.34571,0.97266 -0.58789,3.03125 0,0.002 -2.38085,5.6211 -2.95118,4.22265 4.73633,-11.18554 1.18359,-1.69141 z m 27.03516,7.01367 -0.23437,0.55274 -0.34571,0.49414 0.23438,-0.55274 0.3457,-0.49414 z m -3.12305,0.27539 -0.1875,0.96875 -1.74804,2.50195 0.75195,-1.77539 0.002,-0.002 1.18164,-1.69336 z m -24.77539,1.8457 -3.53515,8.34766 -0.34571,0.49414 3.53516,-8.34765 0.3457,-0.49415 z m -5.83203,0.44336 -4.73633,11.1836 -0.002,0.006 -14.20117,20.31836 -0.002,0.002 -18.11524,16.92187 -21.23828,12.78516 -14.5332,5.01758 13.26172,-7.98438 0.0918,-0.0547 0.002,-0.002 21.41601,-12.89257 18.42188,-17.20899 0.0605,-0.0859 7.16016,-10.24414 7.16211,-10.24609 0.0605,-0.0859 0,-0.002 5.1914,-7.42774 z m 24.9043,2.16016 -0.23438,0.55469 -2.19726,3.14453 0.23437,-0.55664 2.19727,-3.14258 z m -4.93945,1.70508 -2.00977,4.74805 -0.002,0.004 -14.19922,20.31445 -0.002,0.002 -18.11524,16.91992 -0.51172,0.30859 16.00586,-14.95312 14.44141,-20.66211 0.041,-0.0977 0.38282,-0.90625 0.002,-0.002 3.56055,-5.09375 0.0605,-0.0859 0,-0.002 0.34571,-0.49414 z m -9.86328,1.72265 -0.23633,0.56055 -2.74219,3.92383 -6.06836,8.67969 0.23633,-0.55469 0,-0.002 8.81055,-12.60743 z m 17.77148,0.22657 -0.23242,0.55078 0,0.002 -2.95508,4.22461 0.23437,-0.55078 2.95313,-4.22656 z m -27.89844,2.12304 -3.5332,8.34375 -1.72852,2.47266 -0.002,0.002 -6.61914,6.18555 8.86914,-12.69141 0.0606,-0.0859 0,-0.002 2.95312,-4.22461 z m 20.94336,3.64063 -0.75,1.76953 -14.20117,20.31836 -0.004,0.004 -1.40234,1.31054 14.10156,-20.17578 2.25586,-3.22656 z m -3.72266,1.61328 -0.23437,0.55273 -14.20117,20.31836 -18.11524,16.92188 -13.17578,7.93359 6.61914,-6.18359 0.002,-0.002 8.75976,-5.27344 18.42188,-17.20899 0.0605,-0.0859 7.16016,-10.2461 4.70312,-6.72656 z m 6.69336,2.03711 -1.18945,2.80664 -2.22851,2.08203 0.40429,-0.57812 0.0586,-0.0859 2.95507,-4.22461 z m -4.48242,2.70117 -0.23242,0.54883 -5.73828,8.21094 -0.44141,0.41211 6.41211,-9.17188 z m -21.66601,0.73438 -1.20313,2.84375 -0.002,0.004 -3.49414,5 -0.002,0 -3.77149,3.52344 6.96289,-9.96094 1.50977,-1.41015 z m 23.04101,3.90039 -0.42383,1 -0.002,0.006 -1.73047,2.47461 -0.004,0.004 -6.61914,6.1836 2.95312,-4.22461 0.002,-0.004 5.82422,-5.43945 z m -31.58008,4.07617 -6.96093,9.95898 -18.11719,16.92383 -0.004,0.004 -21.23242,12.78125 -0.002,0 -23.43164,8.09179 -15.26758,1.88672 14.64062,-5.05468 0.0996,-0.0332 0.004,-0.002 23.62695,-8.1582 21.59961,-13.00196 0.0762,-0.0723 18.26954,-17.06641 0.0762,-0.0703 0.002,-0.002 6.62109,-6.18555 z m 5.79493,0.78125 -5.18946,7.42383 -0.43945,0.41211 5.1875,-7.42383 0.002,-0.002 0.43946,-0.41015 z m 18.11523,6.51172 -6.95703,9.95508 -0.004,0.004 -18.11328,16.91797 -21.23828,12.78711 -23.43164,8.08984 -15.26367,1.88868 14.63672,-5.05469 0.0996,-0.0352 23.63086,-8.1582 21.59765,-13.00391 0.0762,-0.0723 0.002,0.002 18.26953,-17.06641 0.0762,-0.0723 6.61914,-6.18164 z m -25.58398,0.46289 -5.18946,7.42578 -0.002,0.002 0,0.002 -0.002,0.002 -2.20703,2.06055 -0.002,0.002 -7.76172,4.67187 11.31836,-10.57226 0.0762,-0.0723 3.76954,-3.52148 z m 20.39843,0.17773 -2.95312,4.22461 -0.002,0.002 -8.29883,7.75195 -9.81446,9.16797 -0.002,0.002 -21.23633,12.7832 -14.53711,5.01953 10.40235,-6.26367 0.004,0 5.97657,-2.06445 21.59765,-13.00391 0.0762,-0.0703 18.26954,-17.06641 0.0762,-0.0723 0.4414,-0.41016 z m -24.8164,9.85547 -1.76758,2.52734 -0.002,0.002 -4.45899,4.16601 -0.004,0.002 -4.41407,2.6582 8.875,-8.29102 0.002,0 1.76953,-1.06445 z m -10.01172,6.02539 -8.87695,8.29297 -0.002,0 -21.23633,12.78516 -0.004,0.002 -23.42969,8.08984 -24.60156,3.04297 -15.32617,-1.32812 15.37109,-1.90039 0.10352,-0.0137 24.8125,-3.06641 23.82812,-8.22852 0.0918,-0.0547 21.41797,-12.89454 0.0898,-0.0547 7.76172,-4.67188 z m -3.25391,7.24219 -6.61718,6.18164 -2.5918,1.56055 -8.55664,2.95312 13.26367,-7.98437 0.0898,-0.0547 4.41211,-2.65625 z m -17.44922,12.70312 -10.40625,6.26563 -0.002,0 -0.004,0.002 -11.70898,4.04297 -11.7168,4.04492 -12.30273,1.52149 -12.30078,1.52148 -0.006,0 -24.69141,-2.14062 -14.70703,-4.48242 3.82617,0.33007 11.59766,1.00586 25.01172,2.16602 25.01953,-3.09375 0.0996,-0.0332 23.63086,-8.16016 8.66015,-2.99024 z"
             style="color:#000000;font-style:normal;font-variant:normal;font-weight:normal;font-stretch:normal;font-size:medium;line-height:normal;font-family:sans-serif;text-indent:0;text-align:start;text-decoration:none;text-decoration-line:none;text-decoration-style:solid;text-decoration-color:#000000;letter-spacing:normal;word-spacing:normal;text-transform:none;direction:ltr;block-progression:tb;writing-mode:lr-tb;baseline-shift:baseline;text-anchor:start;white-space:normal;clip-rule:nonzero;display:inline;overflow:visible;visibility:visible;opacity:1;isolation:auto;mix-blend-mode:normal;color-interpolation:sRGB;color-interpolation-filters:linearRGB;solid-color:#000000;solid-opacity:1;fill:#009e07;fill-opacity:1;fill-rule:nonzero;stroke:#5aaf00;stroke-width:1;stroke-linecap:square;stroke-linejoin:miter;stroke-miterlimit:4;stroke-dasharray:none;stroke-dashoffset:0;stroke-opacity:1;color-rendering:auto;image-rendering:auto;shape-rendering:auto;text-rendering:auto;enable-background:accumulate" />
          <path
             inkscape:connector-curvature="0"
             id="path11282-6"
             d="m 188.80476,162.62574 0.58203,1.91211 -23.8125,7.25977 -21.69336,11.99804 -10.79297,9.36719 10.63476,-5.88281 2.91797,-1.61524 19.04883,-10.5371 0.96875,1.75 -19.04883,10.5371 -1.74609,0.9668 0.13672,0.1582 -6.09571,5.28907 11.67774,-6.45899 12.92773,-7.15039 0.96875,1.75 -12.92968,7.15235 -7.2129,3.99023 0.084,0.0957 11.36719,-6.28711 4.57422,-2.53125 0.96875,1.75 -4.57422,2.53125 -15.26758,8.44531 1.20312,1.38477 -3.94726,3.42578 -11.41602,9.90625 0.26367,0.30078 5.83399,-5.0625 11.16015,-9.68359 1.31055,1.50976 -11.16015,9.6836 -5.54297,4.8125 0.10156,0.0762 9.13086,-7.92188 3.94726,-3.42578 1.31055,1.50977 -3.94726,3.42578 -6.80079,5.90039 0.6211,0.71484 -3.86133,3.34961 0.082,0.0957 7.46875,-6.48047 3.94727,-3.42383 1.31054,1.50977 -3.94726,3.42578 -3.86133,3.35156 0.71094,0.82032 -11.90625,10.33203 -0.002,0.004 -3.0039,3.97851 0.7539,0.57032 -3.08007,4.08007 0.10156,0.0762 5.95703,-7.89062 3.14844,-4.17188 1.5957,1.20508 -3.14844,4.17188 -3.08007,4.08008 0.86718,0.65429 -1.90234,2.52149 0.53516,0.40429 -3.08008,4.08008 0.0996,0.0762 5.95703,-7.89062 3.14844,-4.17188 1.59765,1.20508 -3.15039,4.17187 -3.08008,4.08008 0.86719,0.6543 -5.75195,7.62109 -6.09766,8.07813 -0.25586,0.54687 9.33008,-12.35937 1.5957,1.20508 -2.8125,3.72656 0.44532,0.20703 -2.2129,4.73633 -2.16406,4.63086 0.98242,0.45898 -4.04296,8.65235 -3.95313,8.46093 0.11328,0.0527 5.97656,-12.78711 1.81055,0.84765 -3.81055,8.15625 0.85743,0.4004 -6.54297,13.99804 -2.07032,4.42969 0,0.002 -1.10546,4.76758 -1.74415,7.52539 0.12305,0.0293 2.84571,-12.28125 10.6289,-22.74414 1.8125,0.84765 -10.54101,22.55274 -1.84375,7.95703 0.82226,0.18945 1.1543,-4.97851 1.94922,0.45117 -3.48828,15.05078 -2.13282,9.20117 -0.0117,0.60742 1.18946,-5.1289 0.65429,0.15234 3.02149,-13.03906 1.17969,-5.0918 1.05859,0.2461 1.1543,-4.98047 1.94726,0.45117 -3.48828,15.05273 -2.13086,9.19922 -0.0117,0.60156 1.16407,-5.01953 0.0234,-0.10156 5.64453,-24.35351 1.94922,0.45117 -5.62109,24.25195 -0.45703,24.89063 -0.0469,2.61328 1.89844,0.0332 -0.45703,24.89062 4.73047,24.44141 0.59375,3.07227 3.5332,8.34179 -2.9414,-15.20508 -4.76954,-24.64648 0.45899,-25.10156 2,0.0371 -0.45508,24.89062 4.72852,24.44141 4.72851,24.43945 0.002,0.006 0,0.002 4.83204,11.40821 4.83398,11.41211 14.20117,20.32031 11.24024,10.5 -8.87305,-12.69336 -14.38086,-20.57813 -9.83008,-23.21484 -0.0195,-0.10351 -0.002,0 -4.74805,-24.54493 -4.76953,-24.64648 0.45898,-25.10157 2,0.0371 -0.45507,24.89063 4.72851,24.44141 4.73047,24.44726 9.66602,22.82227 8.81054,12.60547 -6.03906,-14.25977 -9.78906,-23.11719 -4.76953,-24.64843 1.96484,-0.37891 4.72852,24.44141 9.70703,22.92383 9.70898,22.92382 14.20117,20.31836 18.11524,16.92188 21.23437,12.78515 0.004,0.002 11.71484,4.04492 11.7168,4.04492 24.60156,3.04297 24.69336,-2.13867 0.004,0 23.71289,-7.22852 0.002,0 21.7832,-12.05078 0.9668,1.75 -21.9668,12.15234 -0.10156,0.0312 -23.91211,7.28907 -0.10156,0.0312 -0.002,0 -23.91211,7.28711 -25.11524,2.17578 -0.10547,-0.0137 0,0.002 -24.81054,-3.06836 -0.10352,-0.0137 -24.8125,-3.06836 -23.82812,-8.22656 -0.0899,-0.0547 -10.70898,-6.44727 -10.71094,-6.44726 -0.0898,-0.0547 -21.41797,-12.89453 -18.421882,-17.20899 -0.0605,-0.0859 -7.16211,-10.2461 -7.16016,-10.24414 -0.0605,-0.0859 0,-0.002 -14.32031,-20.49023 -9.83203,-23.21485 -0.0195,-0.10156 -4.76953,-24.64844 0,-0.008 -4.74805,-24.53711 0.46094,-25.20703 0.0234,-0.10156 5.64453,-24.35547 0.0234,-0.10157 5.64453,-24.35351 10.67578,-22.83984 0.0625,-0.084 15.0625,-19.95313 0.0625,-0.084 0.002,-0.002 15.060552,-19.95117 19.04101,-16.52344 0.0918,-0.0508 21.78516,-12.05078 0.0488,-0.0273 0.043,-0.0234 21.875,-12.10156 0.0918,-0.0508 24.01563,-7.31836 z m -53.3379,25.82422 -13.46093,7.44727 -18.72266,16.24804 -9.265622,12.27539 10.789062,-9.36328 0.0801,-0.0703 0.82421,-0.71484 18.05665,-15.66992 0.90625,-0.78516 10.79296,-9.36719 z m 0.99219,5.13281 -10.63281,5.88086 -0.002,0.002 -0.74414,0.64649 -7.5,6.50781 -7.02344,6.0957 -3.53321,3.06641 -0.74609,0.64648 -0.002,0.002 -7.318362,9.69532 6.843752,-5.9375 0.0781,-0.0684 0,-0.002 4.77344,-4.14063 9.95508,-8.63867 4.1543,-3.60547 4.85156,-4.21094 0.004,-0.002 6.84179,-5.9375 z m 5.33203,3.91797 -0.52539,0.29102 -6.52148,5.6582 -4.61524,4.00586 0.082,0.0937 8.22071,-7.13477 3.35937,-2.91406 z m -6.50976,1.17188 -2.64258,1.46289 -3.08203,2.67383 -2.35938,2.04687 -0.002,0.002 -1.81836,2.4082 9.44336,-8.19336 0.46094,-0.40039 z m -15.35352,12.49218 -9.17383,7.96094 -1.8164,2.40625 4.96093,-4.30469 1.96094,-1.70117 2.25,-1.95312 0.002,0 1.8164,-2.40821 z m -1.95508,7.68946 -1.53125,1.33008 -2.36328,2.05078 -0.002,0 0,0.002 -1.87891,2.48828 -1.22265,1.62109 3.89258,-3.3789 0.002,-0.002 0.002,-0.002 3.10156,-4.10938 z m 2.0625,3.71484 -2.89648,2.51367 -0.64844,0.85938 0.46875,0.35351 0.76172,-0.66211 0.002,0 2.3125,-3.06445 z m -21.025392,0.16797 -10.78906,9.36133 -14.93555,19.78515 -10.49609,22.45899 -3.4707,14.97656 6.59765,-14.11914 0.004,-0.006 10.58203,-22.64258 13.11133,-17.36718 0.004,-0.008 9.39257,-12.43946 z m 0.996102,5.12695 -6.841802,5.9375 -0.006,0.006 -0.004,0.004 -1.8125,2.40235 -3.83593,8.20898 3.10547,-4.11328 4.31445,-5.71484 1.97265,-2.61329 3.107432,-4.11718 z m 4.47265,2.70118 -3.89258,3.37695 -0.002,0.004 -9.429692,12.49023 -0.002,0.004 -2.18164,4.66993 6.18164,-8.18946 6.222662,-8.24414 0.002,-0.002 3.10156,-4.10937 z m -18.935542,13.32812 -7.31836,9.69531 -6.51172,13.9336 7.3164,-9.69141 0.002,0 0,-0.002 0.002,-0.002 0,-0.002 0.002,-0.002 2.67383,-5.72266 3.83399,-8.20703 z m 31.693362,9.25977 -1.78711,2.36718 0.44531,0.20703 -2.16406,4.63282 0.11328,0.0527 3.39258,-7.25977 z m -33.376962,1.59961 -1.2207,1.61718 -0.86719,1.14844 -1.01367,1.34375 -0.002,0 0,0.002 -3.19336,6.83203 -0.64453,1.37696 3.10546,-4.11133 0.002,-0.002 0,-0.002 0.002,-0.004 3.83203,-8.20118 z m 4.51953,3.99023 -2.60742,3.45117 -2.84765,3.77344 -0.002,0.002 0,0.002 -0.81445,1.74218 3.10351,-4.11133 0,-0.002 0.002,-0.002 0.0625,-0.084 2.28711,-3.0293 0.002,-0.002 0.002,-0.004 0.8125,-1.73632 z m 22.697272,2.57031 -1.65234,2.18946 -1.5254,3.26171 0.51563,0.24219 1.33789,-2.86328 0.002,0 1.32227,-2.83008 z m -36.119142,5.23242 -7.31641,9.69141 0,0.002 -10.49609,22.45703 -5.59766,24.15039 -0.45312,24.78516 2.91992,15.09765 0.28516,-15.48046 0.002,-0.10547 0.45703,-24.9961 5.69141,-24.55859 0.0449,-0.0957 7.86523,-16.82617 0,-0.002 0.0449,-0.0957 2.67579,-5.72461 0.043,-0.0937 0.002,-0.004 2.57031,-5.50195 1.26172,-2.69922 z m 0.99219,5.13282 -3.10157,4.10937 -0.002,0.002 -0.0254,0.0547 -2.56055,5.47852 -0.002,0.006 -1.16406,5.01953 0.25586,-0.54883 0.002,-0.004 0.0449,-0.0937 0.96289,-2.0625 5.29297,-11.32422 0.0449,-0.0957 0.25196,-0.54102 z m 5.18945,0.63672 -3.10547,4.11328 -0.002,0.004 -2.58399,5.53125 -1.16406,5.02343 0.25586,-0.54687 0,-0.002 6.3457,-13.57617 0.25391,-0.54688 z m -14.95117,17.72265 -3.83594,8.20703 -5.59766,24.15039 -0.2832,15.38086 2.74609,-11.84179 0.11524,-6.31641 3.33594,-14.39453 2.35546,-10.16406 1.16407,-5.02149 z m 5.1875,0.63867 -2.18164,4.66797 -3.26758,14.09571 -0.20508,0.88867 2.17969,-4.66602 2.31054,-9.96289 1.16407,-5.02344 z m 3.57031,4.63868 -0.81445,1.74023 0,0.004 -1.16407,5.01758 0.81446,-1.74024 0,-0.004 0.002,0 1.16211,-5.01758 z m -2.57812,0.49218 -0.25586,0.54883 -0.13672,0.58594 0.25586,-0.54297 0.002,-0.004 0,-0.002 0.13477,-0.58594 z m 2.39062,9.73047 -0.25195,0.53906 -0.002,0.004 -0.86523,3.73047 0.25391,-0.53906 0,-0.002 0,-0.002 0.86523,-3.73047 z m -4.69922,0.23047 -0.25586,0.54883 -1.16406,5.02148 0.25391,-0.54297 0.002,-0.002 0,-0.002 0.002,-0.002 0.11524,-0.50195 1.04687,-4.51953 z m 0.3711,9.02734 -0.81446,1.74414 0,0.002 -1.61914,6.98243 -1.17969,5.08984 -1.61914,6.98438 0,0.002 -0.0352,1.92578 2.04687,-8.83008 0.0234,-0.10156 1.25391,-5.41016 0.63281,-2.73438 0.42187,-1.8164 0.0234,-0.10156 0.49024,-2.11524 0.375,-1.62109 z m -4.70118,0.24024 -0.16015,0.33984 -0.006,0.37696 0.16615,-0.7168 z m 5.99024,3.60937 -0.25196,0.54102 -0.002,0.006 -2.25976,9.75 0,0.002 0,0.002 -0.0117,0.5957 0.67383,-2.90234 1.85156,-7.99414 z m -4.9961,1.51953 -0.25586,0.54493 0,0.002 -1.08203,4.66601 0,0.002 -0.0117,0.60156 1.34961,-5.8164 z m 44.306642,0.67969 -1.16406,5.02344 -0.26953,14.66797 -0.15039,8.26953 0.84375,0.0156 0.0937,-5.11133 0.22852,0.004 0.13476,-7.38672 0.2832,-15.48242 z m -48.673822,1.40625 -0.46289,0.99024 -0.68165,2.9414 -0.16601,9.0586 1.16406,-5.01758 0,-0.004 0,-0.002 0.14649,-7.9668 z m 16.14062,2.22852 -0.13672,0.58789 -0.0117,0.59961 0.13672,-0.58399 0,-0.002 0,-0.002 0,-0.002 0.0117,-0.59765 z m 29.384772,0.53125 -0.13672,0.58789 -0.0117,0.60937 0.13672,-0.58789 0.0117,-0.60937 z m -4.57422,2.53515 -0.13672,0.58985 -0.0117,0.60351 0.13672,-0.58984 0.0117,-0.60352 z m -32.242192,2.79297 -0.86719,3.73633 0,0.002 -0.0742,4.0625 0.86719,-3.73828 0.0742,-4.0625 z m 36.626952,4.90235 -0.13476,0.58593 -0.17383,9.44336 -0.2832,15.44727 -0.17188,9.44336 1.7207,8.89062 0.0938,-5.14843 0,-0.002 0,-0.004 -1.60547,-8.29883 0.002,-0.10352 0.45703,-24.99609 0.0957,-5.25781 z m -48.652342,0.30859 -2.74414,11.8418 -0.45313,24.7832 0,0.002 2.35352,12.16797 2.35547,12.16993 9.66601,22.82812 8.8125,12.60742 -6.03906,-14.26172 -0.041,-0.0957 0,-0.002 -9.74805,-23.01953 -4.78906,-24.75196 0.002,-0.10351 0.32422,-17.78321 0.13281,-7.21289 0.002,-0.10547 0.16602,-9.06445 z m 44.080082,2.2168 -0.13672,0.58789 0,0.004 -0.17188,9.4414 -0.17187,9.39258 -0.002,0.0801 -0.0117,0.64453 0.11328,0.5918 0.28515,-15.48047 0.0957,-5.26172 z m -36.085942,0.55078 -1.16406,5.01953 0,0.002 -0.38281,20.875 0,0.004 2.92187,15.09766 0.0937,-5.15821 -1.94141,-10.03125 0.1875,-10.22265 0.27344,-14.98438 0,-0.002 0.0117,-0.59961 z m -5,1.52539 -1.16406,5.01758 0,0.002 -0.22656,12.39258 -0.22657,12.39258 4.70899,24.33789 5.99609,14.16211 -2.30664,-11.92774 -0.002,-0.002 -2.46289,-5.81836 -4.78907,-24.75 0.002,-0.10547 0.18554,-10.11719 0.002,-0.10547 0.041,-2.27539 0.1875,-10.22266 0.041,-2.27539 0.002,-0.10546 0,-0.002 0.0117,-0.59766 z m 36.86719,9.35351 -0.0371,2.0293 -0.0566,3.125 0.72851,3.76563 0,-0.0352 0.0645,-3.47657 0,-0.0156 0.0293,-1.62695 -0.72851,-3.76562 z m -23.70703,8.36133 -0.2461,1.06055 0,0.002 -0.0547,3.01953 0,0.002 0.72656,3.76172 0.0566,-2.98438 0.0391,-2.16796 0,-0.002 -0.52148,-2.69141 z m -6.61719,5.79297 -0.0117,0.60156 0.11328,0.58594 0.0117,-0.60156 -0.11328,-0.58594 z m 30.05273,0.61719 -0.01,0.60742 0,0.002 0.72656,3.76172 0.0117,-0.60742 -0.72852,-3.76367 z m -27.31445,0.9043 -0.2207,0.95898 0.57812,2.99805 0.0371,-1.92578 -0.39453,-2.03125 z m 31.134772,2.66211 -0.0957,5.15429 0,0.004 1.31641,6.79687 0.0742,-4.06445 0.002,-0.10351 0.0176,-0.98243 0,-0.006 -1.20117,-6.20313 0,-0.008 -0.11328,-0.58789 z m -27.734382,3.72461 -0.01,0.59961 0.72656,3.76562 0.0117,-0.59961 0,-0.002 0,-0.002 0,-0.002 -0.72852,-3.75976 z m 8.39258,1.0332 -0.0937,5.1543 0,0.004 2.97461,15.37305 0,0.002 2.00976,4.7461 -0.97851,-5.0625 -0.72266,-3.73438 -1.46679,-7.58398 -1.60743,-8.30274 0,-0.002 -0.11523,-0.59375 z m -12.5918,1.09375 -0.01,0.59961 0.97851,5.06445 0.0117,-0.59961 0,-0.002 0,-0.002 0,-0.002 -0.98047,-5.05859 z m 8.01758,1.43945 -0.0937,5.15039 0,0.002 0,0.002 0.24219,1.24609 1.11914,5.79102 2.35547,12.16992 0.002,0.004 1.58399,3.74023 -3.91211,-20.2168 0.002,-0.10351 0.0176,-0.98633 0,-0.002 0,-0.002 0,-0.002 -1.31641,-6.79297 z m 33.218752,3.43164 -0.0117,0.60547 2.10938,10.90235 0.23437,0.55468 -2.33203,-12.0625 z m -37.224612,3.2168 -0.0351,1.92773 0,0.002 0,0.002 0.24218,1.24609 0.57032,2.94922 0.55078,2.8418 2.35351,12.16797 0,0.002 0.002,0.004 0.74805,1.76562 -3.70312,-19.13672 0,-0.008 -0.72852,-3.76367 z m 27.650392,0.83789 -0.0117,0.59961 1.36133,7.03906 2.35547,12.16992 3.5332,8.34571 -0.97851,-5.0625 -3.29883,-7.78711 -0.0195,-0.10352 -2.94141,-15.20117 z m -31.847652,1.29102 -0.008,0.38476 0.15039,0.35352 -0.14257,-0.73828 z m 6.9414,0.86523 -0.0117,0.60156 0,0.002 4.71094,24.34375 8.14258,19.22656 8.80859,12.60156 -2.00976,-4.74609 -5.85547,-8.37891 -9.83008,-23.21484 -0.0195,-0.10157 -0.002,0 -0.97071,-5.02343 -0.002,-0.006 -0.0195,-0.10352 -0.78711,-4.07031 -2.1543,-11.13086 z m 20.95899,1.26758 -0.0117,0.60156 0.91015,4.70313 0,0.002 0.23438,0.55273 -1.13281,-5.85937 z m -3.0918,1.01172 -0.0488,2.63281 1.05469,2.49023 -0.97656,-5.05273 0,-0.002 -0.002,-0.004 -0.0273,-0.0645 z m 20.388672,0.5039 1.12891,5.82813 1.17968,6.09961 0,0.002 2.00977,4.74414 -2.30859,-11.92773 -2.00977,-4.7461 z m -42.203122,0.64063 -0.0117,0.60351 0,0.002 0.9082,4.69726 0.002,0.002 0.23438,0.55664 -0.56641,-2.93164 -0.5664,-2.92969 z m 15.5039,3.4375 0.11524,0.5918 0.23437,0.55078 -0.11328,-0.58594 -0.002,-0.006 -0.23438,-0.55078 z m -18.64453,0.24609 -0.0195,1.0918 0.57422,2.9668 3.53125,8.34179 -0.97852,-5.06445 -3.10742,-7.33594 z m 26.29688,6.21485 0.11328,0.59375 1.49414,3.52929 -0.11328,-0.59179 0,-0.002 -0.002,0 -1.49218,-3.52929 z m 19.197262,1.42187 1.7207,8.89453 0.23438,0.55274 -1.7207,-8.89649 -0.23438,-0.55078 z m -14.7207,1.27539 0.97851,5.05664 0,0.002 2.69922,6.37304 -0.76953,-3.98047 -0.002,-0.006 -0.0195,-0.10351 -0.1875,-0.96875 0,-0.002 -2.42383,-5.72071 -0.041,-0.0977 -0.23437,-0.55274 z m -8.140632,0.25586 0.11329,0.58985 0,0.002 0,0.002 2.00976,4.74414 -0.11523,-0.5918 0,-0.004 -2.00782,-4.74219 z m 28.474612,0.11719 2.30664,11.92383 0,0.002 4.83204,11.41406 4.83203,11.40625 0.002,0.006 4.83984,6.92383 9.36328,13.39453 18.11524,16.92383 13.17773,7.93359 -11.31836,-10.57226 -0.0762,-0.0723 -18.26953,-17.06445 -14.44141,-20.66406 -0.041,-0.0977 -4.875,-11.50977 -4.875,-11.50976 -0.041,-0.0977 -3.53125,-8.33984 z m -11.04492,3.36328 0.11524,0.5918 3.80273,8.98047 2.19336,5.17968 -0.0566,-0.29492 -0.0566,-0.29492 -0.002,-0.004 -5.9961,-14.1582 z m -37.679692,0.85547 2.30664,11.92578 0,0.002 4.83399,11.41211 4.83203,11.41407 14.20117,20.31835 18.117192,16.92383 13.17383,7.93164 -11.31446,-10.57031 -0.0762,-0.0723 -18.26953,-17.06445 -14.441402,-20.66406 -0.041,-0.0977 -4.875,-11.50976 -4.875,-11.50977 -0.041,-0.0976 -3.53125,-8.3418 z m 4.47461,2.6875 0.98047,5.06641 0,0.002 9.66797,22.82812 0.002,0.002 14.199222,20.3164 11.24024,10.5 -6.96289,-9.96093 -4.61719,-4.3125 -14.441412,-20.66407 -0.041,-0.0957 -9.74805,-23.02149 -0.041,-0.0977 -0.23828,-0.5625 z m 42.623052,0.85742 1.7207,8.89453 0,0.002 1.17578,2.77734 5.18946,7.42383 -6.03516,-14.25391 -0.041,-0.0957 0,-0.002 -2.00977,-4.74609 z m -17.9375,1.55859 0.11328,0.5879 0,0.002 0.002,0.004 4.83008,11.40821 4.83399,11.41406 14.20312,20.31836 3.76367,3.51562 -0.40429,-0.57812 -0.0586,-0.0859 -4.72461,-6.75781 -9.59765,-13.73242 -4.84571,-6.93164 -0.041,-0.0957 -8.07422,-19.06836 z m -3.150392,4.16797 0.11523,0.5918 3.906252,9.22461 0.34571,0.49414 -4.367192,-10.31055 z m -2.30469,4.25586 0.20703,1.07031 1.17774,2.78321 0.002,0.002 2.19531,3.14063 -2.01172,-4.75 -0.002,0 -1.56836,-2.2461 z m 23.345712,0.97266 0.58789,3.03125 0,0.002 2.38085,5.6211 2.95118,4.22265 -4.73633,-11.18554 -1.18359,-1.69141 z m -27.035162,7.01367 0.23437,0.55274 0.34571,0.49414 -0.23438,-0.55274 -0.3457,-0.49414 z m 3.12305,0.27539 0.1875,0.96875 1.74804,2.50195 -0.75195,-1.77539 -0.002,-0.002 -1.18164,-1.69336 z m 24.775392,1.8457 3.53515,8.34766 0.34571,0.49414 -3.53516,-8.34765 -0.3457,-0.49415 z m 5.83203,0.44336 4.73633,11.1836 0.002,0.006 14.20117,20.31836 0.002,0.002 18.11524,16.92187 21.23828,12.78516 14.5332,5.01758 -13.26172,-7.98438 -0.0918,-0.0547 -0.002,-0.002 -21.41601,-12.89257 -18.42188,-17.20899 -0.0605,-0.0859 -7.16016,-10.24414 -7.16211,-10.24609 -0.0605,-0.0859 0,-0.002 -5.1914,-7.42774 z m -24.9043,2.16016 0.23438,0.55469 2.19726,3.14453 -0.23437,-0.55664 -2.19727,-3.14258 z m 4.93945,1.70508 2.00977,4.74805 0.002,0.004 14.19922,20.31445 0.002,0.002 18.11524,16.91992 0.51172,0.30859 -16.00586,-14.95312 -14.44141,-20.66211 -0.041,-0.0977 -0.38282,-0.90625 -0.002,-0.002 -3.56055,-5.09375 -0.0605,-0.0859 0,-0.002 -0.34571,-0.49414 z m 9.86328,1.72265 0.23633,0.56055 2.74219,3.92383 6.06836,8.67969 -0.23633,-0.55469 0,-0.002 -8.81055,-12.60743 z m -17.771482,0.22657 0.23242,0.55078 0,0.002 2.955082,4.22461 -0.23437,-0.55078 -2.953132,-4.22656 z m 27.898442,2.12304 3.5332,8.34375 1.72852,2.47266 0.002,0.002 6.61914,6.18555 -8.86914,-12.69141 -0.0606,-0.0859 0,-0.002 -2.95312,-4.22461 z m -20.94336,3.64063 0.75,1.76953 14.20117,20.31836 0.004,0.004 1.40234,1.31054 -14.10156,-20.17578 -2.25586,-3.22656 z m 3.72266,1.61328 0.23437,0.55273 14.20117,20.31836 18.11524,16.92188 13.17578,7.93359 -6.61914,-6.18359 -0.002,-0.002 -8.75976,-5.27344 -18.42188,-17.20899 -0.0605,-0.0859 -7.16016,-10.2461 -4.70312,-6.72656 z m -6.69336,2.03711 1.18945,2.80664 2.22851,2.08203 -0.40429,-0.57812 -0.0586,-0.0859 -2.95507,-4.22461 z m 4.48242,2.70117 0.23242,0.54883 5.73828,8.21094 0.44141,0.41211 -6.41211,-9.17188 z m 21.66601,0.73438 1.20313,2.84375 0.002,0.004 3.49414,5 0.002,0 3.77149,3.52344 -6.96289,-9.96094 -1.50977,-1.41015 z m -23.04101,3.90039 0.42383,1 0.002,0.006 1.73047,2.47461 0.004,0.004 6.61914,6.1836 -2.95312,-4.22461 -0.002,-0.004 -5.82422,-5.43945 z m 31.58008,4.07617 6.96093,9.95898 18.11719,16.92383 0.004,0.004 21.23242,12.78125 0.002,0 23.43164,8.09179 15.26758,1.88672 -14.64062,-5.05468 -0.0996,-0.0332 -0.004,-0.002 -23.62695,-8.1582 -21.59961,-13.00196 -0.0762,-0.0723 -18.26954,-17.06641 -0.0762,-0.0703 -0.002,-0.002 -6.62109,-6.18555 z m -5.79493,0.78125 5.18946,7.42383 0.43945,0.41211 -5.1875,-7.42383 -0.002,-0.002 -0.43946,-0.41015 z m -18.11523,6.51172 6.95703,9.95508 0.004,0.004 18.11328,16.91797 21.23828,12.78711 23.43164,8.08984 15.26367,1.88868 -14.63672,-5.05469 -0.0996,-0.0352 -23.63086,-8.1582 -21.59765,-13.00391 -0.0762,-0.0723 -0.002,0.002 -18.26953,-17.06641 -0.0762,-0.0723 -6.61914,-6.18164 z m 25.58398,0.46289 5.18946,7.42578 0.002,0.002 0,0.002 0.002,0.002 2.20703,2.06055 0.002,0.002 7.76172,4.67187 -11.31836,-10.57226 -0.0762,-0.0723 -3.76954,-3.52148 z m -20.39843,0.17773 2.95312,4.22461 0.002,0.002 8.29883,7.75195 9.81446,9.16797 0.002,0.002 21.23633,12.7832 14.53711,5.01953 -10.40235,-6.26367 -0.004,0 -5.97657,-2.06445 -21.59765,-13.00391 -0.0762,-0.0703 -18.26954,-17.06641 -0.0762,-0.0723 -0.4414,-0.41016 z m 24.8164,9.85547 1.76758,2.52734 0.002,0.002 4.45899,4.16601 0.004,0.002 4.41407,2.6582 -8.875,-8.29102 -0.002,0 -1.76953,-1.06445 z m 10.01172,6.02539 8.87695,8.29297 0.002,0 21.23633,12.78516 0.004,0.002 23.42969,8.08984 24.60156,3.04297 15.32617,-1.32812 -15.37109,-1.90039 -0.10352,-0.0137 -24.8125,-3.06641 -23.82812,-8.22852 -0.0918,-0.0547 -21.41797,-12.89454 -0.0898,-0.0547 -7.76172,-4.67188 z m 3.25391,7.24219 6.61718,6.18164 2.5918,1.56055 8.55664,2.95312 -13.26367,-7.98437 -0.0898,-0.0547 -4.41211,-2.65625 z m 17.44922,12.70312 10.40625,6.26563 0.002,0 0.004,0.002 11.70898,4.04297 11.7168,4.04492 12.30273,1.52149 12.30078,1.52148 0.006,0 24.69141,-2.14062 14.70703,-4.48242 -3.82617,0.33007 -11.59766,1.00586 -25.01172,2.16602 -25.01953,-3.09375 -0.0996,-0.0332 -23.63086,-8.16016 -8.66015,-2.99024 z"
             style="color:#000000;font-style:normal;font-variant:normal;font-weight:normal;font-stretch:normal;font-size:medium;line-height:normal;font-family:sans-serif;text-indent:0;text-align:start;text-decoration:none;text-decoration-line:none;text-decoration-style:solid;text-decoration-color:#000000;letter-spacing:normal;word-spacing:normal;text-transform:none;direction:ltr;block-progression:tb;writing-mode:lr-tb;baseline-shift:baseline;text-anchor:start;white-space:normal;clip-rule:nonzero;display:inline;overflow:visible;visibility:visible;opacity:1;isolation:auto;mix-blend-mode:normal;color-interpolation:sRGB;color-interpolation-filters:linearRGB;solid-color:#000000;solid-opacity:1;fill:#009e07;fill-opacity:1;fill-rule:nonzero;stroke:#5aaf00;stroke-width:1;stroke-linecap:square;stroke-linejoin:miter;stroke-miterlimit:4;stroke-dasharray:none;stroke-dashoffset:0;stroke-opacity:1;color-rendering:auto;image-rendering:auto;shape-rendering:auto;text-rendering:auto;enable-background:accumulate" />
        </g>
        <g
           transform="matrix(0.85714447,0,0,-0.85714447,-54.478585,644.63724)"
           id="g4281"
           style="">
          <g
             id="g4271"
             transform="translate(-56.992683,23.354564)"
             style="">
            <path
               style="fill:#6192fc"
               d="m 372.55042,452.12511 c -36.84826,-5.99146 -67.95715,-28.63216 -84.86174,-61.76142 -8.64146,-16.93536 -12.08882,-31.82579 -12.08882,-52.21615 0,-20.39036 3.44736,-35.28079 12.08882,-52.21615 16.36045,-32.06285 45.00355,-53.56418 81.86174,-61.45061 7.79274,-1.66739 34.20726,-1.66739 42,0 24.3272,5.20521 44.1179,15.7085 60.53808,32.12868 16.42018,16.42018 26.92347,36.21088 32.12868,60.53808 1.66739,7.79274 1.66739,34.20726 0,42 -10.18959,47.62227 -43.98973,82.04322 -90.44146,92.10257 -10.31569,2.23392 -30.26386,2.65731 -41.2253,0.875 z"
               id="path4277"
               inkscape:connector-curvature="0" />
            <path
               style="fill:#5d8cfb"
               d="m 373.55042,451.69462 c -5.18085,-1.29211 -10.60936,-3.93829 -13.93713,-6.79378 -1.76477,-1.51432 -5.34399,-4.22811 -7.95382,-6.03066 -3.00245,-2.07372 -4.62799,-3.8858 -4.42611,-4.93405 0.55975,-2.90654 18.68908,-9.19596 34.31706,-11.90527 7.7,-1.3349 18.5,-3.49528 24,-4.80086 5.5,-1.30558 12.40096,-2.69325 15.33547,-3.08371 3.79216,-0.50458 6.289,-1.54715 8.63201,-3.60434 1.8131,-1.59193 3.79964,-2.89441 4.41454,-2.89441 1.87592,0 1.24491,2.8617 -0.88202,4 -2.86778,1.53479 -2.80842,8.95841 0.0926,11.58382 4.04975,3.66498 4.15691,4.9789 0.92774,11.37584 -3.67941,7.28889 -5.64359,8.61918 -14.02036,9.4957 -6.03951,0.63196 -18.99469,3.48699 -31.96793,7.04501 -5.8399,1.60165 -9.71728,1.74752 -14.53207,0.54671 z m 15.39572,-6.96147 c 2.84116,-1.79901 0.38101,-4.08561 -4.39572,-4.08561 -3.26115,0 -4.73802,0.4567 -5.1771,1.60092 -0.77446,2.01822 1.30077,3.36845 5.1771,3.36845 1.65,0 3.62807,-0.39769 4.39572,-0.88376 z m 14.85428,5.25211 c 0.6875,-0.27741 1.8125,-0.27741 2.5,0 0.6875,0.27741 0.125,0.50439 -1.25,0.50439 -1.375,0 -1.9375,-0.22698 -1.25,-0.50439 z m -67.25,-12.46557 c -8.2723,-4.25406 -17.67385,-11.08948 -24.12323,-17.53886 l -5.42223,-5.42222 0.49689,-10.20554 c 0.29184,-5.99419 0.011,-12.58466 -0.68054,-15.97099 -2.09832,-10.27477 2.06534,-19.75962 8.65342,-19.71258 9.01365,0.0644 28.98286,14.45139 39.77258,28.65456 3.11163,4.09603 4.05067,6.32201 4.49885,10.66439 0.51174,4.95834 0.31691,5.73735 -2.01922,8.07348 -2.00388,2.00388 -3.58394,2.58561 -7.02291,2.58561 -3.82395,0 -5.10883,-0.60078 -9.29546,-4.34635 -5.27656,-4.72068 -8.39114,-6.65365 -10.72098,-6.65365 -2.5901,0 -4.63694,3.00697 -4.64333,6.82143 -0.003,2.02321 -0.67263,4.95641 -1.48721,6.51822 -2.11318,4.05166 -0.89223,5.67709 9.52677,12.68281 4.93163,3.31602 8.9666,6.24252 8.9666,6.50333 0,0.69204 0.0287,0.70374 -6.5,-2.65364 z m 106.5,-2.78245 c 0,-1.69235 1.37044,-4.54006 3.44886,-7.16656 1.89688,-2.39708 3.73939,-6.07788 4.09446,-8.17957 0.39324,-2.32754 1.48819,-4.35559 2.80114,-5.18821 2.89328,-1.83481 18.65554,-3.19493 18.65554,-1.60978 0,5.36325 -14.71244,18.98264 -25.27253,23.39493 l -3.72747,1.55744 0,-2.80825 z m 30.04183,-16.5897 c -0.0183,-0.55 1.31288,-3.025 2.95817,-5.5 3.43493,-5.16714 3.64822,-6.62624 1.34128,-9.17539 -1.46188,-1.61535 -1.51186,-2.51476 -0.42118,-7.57874 0.68065,-3.16023 2.75589,-10.02087 4.61165,-15.24587 1.85576,-5.225 3.90422,-11.37144 4.55213,-13.65876 0.70324,-2.48263 2.31473,-4.99916 3.9984,-6.24395 4.00228,-2.95901 4.81591,-6.94376 6.12105,-29.97781 1.43279,-25.28696 0.97588,-28.02805 -6.56659,-39.39383 -3.00224,-4.52411 -6.42178,-10.92565 -7.59896,-14.22565 -2.66563,-7.47259 -8.3627,-15.5 -11.00038,-15.5 -1.72733,0 -1.88316,0.52762 -1.40289,4.75 0.52306,4.59873 0.39418,4.89197 -4.04712,9.20821 -2.52306,2.45201 -4.58739,5.26451 -4.58739,6.25 0,2.29416 -0.30703,2.27364 -10.59676,-0.70821 -15.44019,-4.47439 -16.56359,-3.7426 -18.42167,12 -1.33844,11.33999 -3.609,17.1091 -8.01603,20.36736 -4.17599,3.08744 -10.37477,5.13264 -15.55647,5.13264 -5.33334,0 -10.16895,-3.83293 -14.48596,-11.48224 -1.58345,-2.80573 -4.27178,-6.43252 -5.97407,-8.05954 -2.86784,-2.74104 -3.60971,-2.94777 -10.10508,-2.8159 -6.16641,0.1252 -7.45129,0.49898 -10.67698,3.10606 -2.01684,1.63006 -5.69198,6.33313 -8.16698,10.45128 -6.83982,11.38074 -8.95298,13.66883 -14.40108,15.59326 -7.13986,2.522 -9.06817,5.61334 -9.04937,14.50742 0.008,3.95981 0.40317,10.67521 0.87733,14.9231 1.39386,12.48738 -1.7219,13.66184 -16.52306,6.22826 -7.83826,-3.93661 -9.79124,-4.51857 -14.5215,-4.3272 -3.65466,0.14786 -5.93881,-0.25242 -6.8946,-1.20821 -2.90092,-2.90092 -5.64169,-16.9352 -6.42827,-32.91629 -0.55534,-11.28305 -1.25017,-16.65009 -2.55395,-19.7273 -1.6461,-3.8852 -1.68013,-4.97772 -0.42041,-13.5 1.24149,-8.39897 1.84039,-9.97568 6.35597,-16.73329 16.08789,-24.0757 42.9253,-41.54461 74.05894,-48.20617 7.79274,-1.66739 34.20726,-1.66739 42,0 36.85819,7.88643 65.50129,29.38776 81.86174,61.45061 8.64146,16.93536 12.08882,31.82579 12.08882,52.21615 0,20.39036 -3.44736,35.28079 -12.08882,52.21615 -5.63196,11.03739 -20.21374,30.97538 -20.31991,27.78385 z M 342.23351,267.71758 c 10.28172,-9.05033 11.50201,-20.79404 1.47369,-14.18231 -3.70695,2.44401 -10.51977,10.71819 -11.26281,13.6787 -1.42926,5.69462 3.59801,5.95325 9.78912,0.50361 z m -48.46794,125.16769 c -2.48495,-2.74583 -4.68557,-8.66756 -3.77097,-10.14742 1.11851,-1.80978 4.74601,-0.49278 6.6511,2.41476 1.67498,2.55634 1.56389,8.62507 -0.16827,9.19225 -0.59015,0.19324 -1.81049,-0.46358 -2.71186,-1.45959 z m 77.28485,-4.30867 c -3.575,-2.77919 -9.26436,-6.37518 -12.64302,-7.99109 -3.37866,-1.61591 -6.41616,-3.64981 -6.75,-4.51978 -1.01815,-2.65325 -0.67682,-11.4161 0.53497,-13.73393 0.62807,-1.20134 2.8399,-4.0453 4.91518,-6.3199 6.38101,-6.99388 7.20594,-9.48025 7.97676,-24.04205 0.7568,-14.29718 2.14048,-18.44028 7.08547,-21.21583 5.54271,-3.11104 13.62621,2.87058 17.38064,12.86129 1.12476,2.99304 3.19354,6.21196 4.72733,7.3555 l 2.72734,2.03339 11.27266,-2.19681 c 14.19823,-2.76693 21.10363,-6.11529 31.15685,-15.10765 6.50573,-5.81921 8.481,-7.0522 11.29775,-7.0522 3.89459,0 7.70239,3.37554 8.78738,7.78984 0.36638,1.49059 1.35884,3.78036 2.20548,5.08839 1.46007,2.25574 1.91027,2.34462 8.74086,1.72564 l 7.20151,-0.65258 3.19389,7.27436 c 1.75664,4.00089 3.19278,8.94345 3.19142,10.98347 -0.003,4.02774 -6.4071,17.52162 -11.46061,24.14712 -3.42627,4.49207 -14.49812,12.64376 -17.1731,12.64376 -1.66309,0 -14.29742,-13.30077 -15.20209,-16.00398 -0.60479,-1.80714 -2.16667,-1.03602 -2.16667,1.06972 0,3.29413 -1.7098,5.63852 -6.53192,8.95622 -4.54009,3.12367 -12.44209,6.26439 -20.15277,8.00992 -7.86592,1.78067 -15.26287,5.09148 -21.29288,9.53053 -8.14016,5.99244 -10.60492,5.91037 -19.02243,-0.63335 z m -86.95081,-20.36979 c -0.70169,-0.84549 -1.64264,-1.31053 -2.09099,-1.03344 -0.44835,0.2771 -1.63486,-2.99036 -2.63669,-7.26101 -3.4152,-14.55848 -2.1436,-41.12023 2.55512,-53.37261 l 0.9174,-2.39221 1.34859,3 c 0.90926,2.02271 1.36094,7.3978 1.38654,16.5 0.0299,10.6497 0.48591,15.0835 2.1596,21 3.98389,14.083 3.84399,24.18001 -0.34358,24.79826 -1.11111,0.16404 -2.5943,-0.39351 -3.29599,-1.23899 z m 191.96446,-64.73972 c 0.0161,-8.60048 0.71404,-11.81955 2.56284,-11.81955 2.27314,0 3.82693,7.27857 2.82046,13.21215 -0.74509,4.39256 -1.2779,5.34195 -3.14695,5.6074 -2.15853,0.30656 -2.24944,0.022 -2.23635,-7 z"
               id="path4275"
               inkscape:connector-curvature="0" />
            <path
               style="fill:#64f760"
               d="m 373.55042,451.69462 c -5.18085,-1.29211 -10.60936,-3.93829 -13.93713,-6.79378 -1.76477,-1.51432 -5.34399,-4.22811 -7.95382,-6.03066 -3.00245,-2.07372 -4.62799,-3.8858 -4.42611,-4.93405 0.55975,-2.90654 18.68908,-9.19596 34.31706,-11.90527 7.7,-1.3349 18.5,-3.49528 24,-4.80086 5.5,-1.30558 12.40096,-2.69325 15.33547,-3.08371 3.79216,-0.50458 6.289,-1.54715 8.63201,-3.60434 1.8131,-1.59193 3.79964,-2.89441 4.41454,-2.89441 1.87592,0 1.24491,2.8617 -0.88202,4 -2.86778,1.53479 -2.80842,8.95841 0.0926,11.58382 4.04975,3.66498 4.15691,4.9789 0.92774,11.37584 -3.67941,7.28889 -5.64359,8.61918 -14.02036,9.4957 -6.03951,0.63196 -18.99469,3.48699 -31.96793,7.04501 -5.8399,1.60165 -9.71728,1.74752 -14.53207,0.54671 z m 15.39572,-6.96147 c 2.84116,-1.79901 0.38101,-4.08561 -4.39572,-4.08561 -3.26115,0 -4.73802,0.4567 -5.1771,1.60092 -0.77446,2.01822 1.30077,3.36845 5.1771,3.36845 1.65,0 3.62807,-0.39769 4.39572,-0.88376 z m 84.14611,-26.58561 c -0.0183,-0.55 1.31288,-3.025 2.95817,-5.5 3.43493,-5.16714 3.64822,-6.62624 1.34128,-9.17539 -1.46188,-1.61535 -1.51186,-2.51476 -0.42118,-7.57874 0.68065,-3.16023 2.75589,-10.02087 4.61165,-15.24587 1.85576,-5.225 3.90422,-11.37144 4.55213,-13.65876 0.70324,-2.48263 2.31473,-4.99916 3.9984,-6.24395 4.00228,-2.95901 4.81591,-6.94376 6.12105,-29.97781 1.43279,-25.28696 0.97588,-28.02805 -6.56659,-39.39383 -3.00224,-4.52411 -6.42178,-10.92565 -7.59896,-14.22565 -2.66563,-7.47259 -8.3627,-15.5 -11.00038,-15.5 -1.72733,0 -1.88316,0.52762 -1.40289,4.75 0.52306,4.59873 0.39418,4.89197 -4.04712,9.20821 -2.52306,2.45201 -4.58739,5.26451 -4.58739,6.25 0,2.29416 -0.30703,2.27364 -10.59676,-0.70821 -15.44019,-4.47439 -16.56359,-3.7426 -18.42167,12 -1.33844,11.33999 -3.609,17.1091 -8.01603,20.36736 -4.17599,3.08744 -10.37477,5.13264 -15.55647,5.13264 -5.33334,0 -10.16895,-3.83293 -14.48596,-11.48224 -1.58345,-2.80573 -4.27178,-6.43252 -5.97407,-8.05954 -2.86784,-2.74104 -3.60971,-2.94777 -10.10508,-2.8159 -6.16641,0.1252 -7.45129,0.49898 -10.67698,3.10606 -2.01684,1.63006 -5.69198,6.33313 -8.16698,10.45128 -6.83982,11.38074 -8.95298,13.66883 -14.40108,15.59326 -7.13986,2.522 -9.06817,5.61334 -9.04937,14.50742 0.008,3.95981 0.40317,10.67521 0.87733,14.9231 1.39386,12.48738 -1.7219,13.66184 -16.52306,6.22826 -7.83826,-3.93661 -9.79124,-4.51857 -14.5215,-4.3272 -3.65466,0.14786 -5.93881,-0.25242 -6.8946,-1.20821 -2.90092,-2.90092 -5.64169,-16.9352 -6.42827,-32.91629 -0.55534,-11.28305 -1.25017,-16.65009 -2.55395,-19.7273 -1.6461,-3.8852 -1.68013,-4.97772 -0.42041,-13.5 1.24149,-8.39897 1.84039,-9.97568 6.35597,-16.73329 16.08789,-24.0757 42.9253,-41.54461 74.05894,-48.20617 7.79274,-1.66739 34.20726,-1.66739 42,0 36.85819,7.88643 65.50129,29.38776 81.86174,61.45061 8.64146,16.93536 12.08882,31.82579 12.08882,52.21615 0,20.39036 -3.44736,35.28079 -12.08882,52.21615 -5.63196,11.03739 -20.21374,30.97538 -20.31991,27.78385 z M 342.23351,267.71758 c 10.28172,-9.05033 11.50201,-20.79404 1.47369,-14.18231 -3.70695,2.44401 -10.51977,10.71819 -11.26281,13.6787 -1.42926,5.69462 3.59801,5.95325 9.78912,0.50361 z m -48.46794,125.16769 c -2.48495,-2.74583 -4.68557,-8.66756 -3.77097,-10.14742 1.11851,-1.80978 4.74601,-0.49278 6.6511,2.41476 1.67498,2.55634 1.56389,8.62507 -0.16827,9.19225 -0.59015,0.19324 -1.81049,-0.46358 -2.71186,-1.45959 z"
               id="path4273"
               inkscape:connector-curvature="0" />
          </g>
        </g>
        <g
           id="g11837"
           style="">
          <g
             transform="translate(0,5.555839)"
             id="g11821"
             style="">
            <g
               id="g11828"
               style="">
              <path
                 sodipodi:nodetypes="cccccc"
                 inkscape:connector-curvature="0"
                 id="rect11658-9"
                 d="m 30.358824,470.44713 88.500586,-12.87945 0,69.28552 -88.500586,12.87945 35,-34.64252 z"
                 style="fill:#fb0c0c;fill-opacity:1;fill-rule:evenodd;stroke:#f3f500;stroke-width:3;stroke-linecap:butt;stroke-linejoin:miter;stroke-miterlimit:4;stroke-dasharray:none;stroke-opacity:1" />
              <path
                 sodipodi:nodetypes="ccccccc"
                 inkscape:connector-curvature="0"
                 id="rect11658-7"
                 d="m 73.92857,439.86218 19.687502,0 19.687498,0 5.55584,86.96364 c -13.125,0 -31.80584,-17.67793 -44.93084,-17.67793 l 0,-34.64271 z"
                 style="fill:#900303;fill-opacity:1;fill-rule:evenodd;stroke:#f3f500;stroke-width:3;stroke-linecap:butt;stroke-linejoin:miter;stroke-miterlimit:4;stroke-dasharray:none;stroke-opacity:1" />
            </g>
            <use
               x="0"
               y="0"
               xlink:href="#rect11658-9"
               id="use11817"
               transform="matrix(-1,0,0,1,462.85717,0)"
               width="100%"
               height="100%"
               style="" />
            <use
               x="0"
               y="0"
               xlink:href="#rect11658-7"
               id="use11819"
               transform="matrix(-1,0,0,1,462.85717,0)"
               width="100%"
               height="100%"
               style="" />
            <path
               style="fill:#fb0c0c;fill-opacity:1;fill-rule:evenodd;stroke:#f3f500;stroke-width:3;stroke-linecap:butt;stroke-linejoin:miter;stroke-miterlimit:4;stroke-dasharray:none;stroke-opacity:1"
               d="m 73.92857,439.86218 c 0,0 43.01975,-11.7857 157.50001,-11.78564 114.48026,5e-5 157.50002,11.78579 157.50002,11.78579 l 0,69.28571 c 0,0 -55.89287,-11.78587 -157.50002,-11.78589 -101.60715,-2e-5 -157.50001,11.78574 -157.50001,11.78574 z"
               id="rect11658"
               inkscape:connector-curvature="0"
               sodipodi:nodetypes="czcczcc" />
          </g>
        </g>
        <path
           style="fill:#f3f500;fill-opacity:1"
           d="m 108.1001,484.76957 c -0.36219,-0.23818 -1.59076,-1.21817 -2.73016,-2.17776 -1.1394,-0.9596 -3.57943,-2.91257 -5.422296,-4.33992 -1.842859,-1.42736 -4.104554,-3.32701 -5.025985,-4.22145 -1.526422,-1.48172 -1.675329,-1.71587 -1.675329,-2.63441 0,-1.41063 1.23093,-3.03621 3.767813,-4.9758 3.289457,-2.51499 5.259797,-4.116 6.763317,-5.49555 2.06272,-1.89264 2.70503,-2.19451 3.5255,-1.65691 0.77528,0.50798 0.75569,1.4261 -0.053,2.48642 -0.35204,0.46154 -2.22282,2.26699 -4.1573,4.01211 -1.93449,1.74511 -3.942478,3.60054 -4.462203,4.12316 l -0.944959,0.95021 1.069054,0.85793 c 0.587984,0.47187 2.856078,2.215 5.040208,3.87363 4.22813,3.21084 6.677,5.19401 7.38385,5.97966 0.69114,0.76817 0.56619,2.19416 -0.26177,2.9874 -0.81578,0.78157 -1.85061,0.86654 -2.81668,0.23128 z m 232.17105,-0.4329 c -0.90922,-0.64446 -1.27881,-2.52712 -1.55194,-7.90532 -0.13968,-2.75058 -0.37629,-7.28133 -0.5258,-10.06832 -0.28477,-5.30814 -0.17657,-7.4649 0.42124,-8.39742 0.45015,-0.70215 1.49271,-0.7341 2.20228,-0.0675 0.46316,0.43512 0.69075,0.46593 2.00156,0.27088 0.81344,-0.12104 4.38288,-0.28618 7.93209,-0.36699 5.09246,-0.11595 6.80082,-0.0722 8.10214,0.20704 3.04128,0.65281 4.46678,1.7618 5.30988,4.1309 0.21526,0.60491 1.1191,4.28296 2.0085,8.17345 1.42597,6.23745 1.60765,7.31825 1.53696,9.14318 -0.0717,1.85244 -0.14457,2.12176 -0.69438,2.56695 -0.52372,0.42409 -0.83468,0.47378 -2.10997,0.33721 -0.99368,-0.10642 -2.57869,0.004 -4.72197,0.32964 -1.77443,0.2694 -4.39897,0.55986 -5.83229,0.64547 -1.43335,0.0856 -3.55543,0.26566 -4.71575,0.40011 -1.16032,0.13447 -3.39409,0.33966 -4.96394,0.456 -1.56985,0.11634 -3.07764,0.28445 -3.35065,0.37359 -0.29188,0.0953 -0.72365,8.7e-4 -1.04796,-0.22888 z m 7.40155,-3.21146 c 1.96586,-0.20152 5.02623,-0.47934 6.80084,-0.61738 1.7746,-0.13805 4.12007,-0.41269 5.21213,-0.61033 1.09207,-0.19763 2.39678,-0.42814 2.89941,-0.51225 0.89307,-0.14943 0.91081,-0.17387 0.78207,-1.07557 -0.0724,-0.50747 -0.55974,-2.76553 -1.08281,-5.01792 -0.5231,-2.25238 -1.24327,-5.60272 -1.60038,-7.44519 -0.71222,-3.67461 -0.99688,-4.31519 -2.03799,-4.58622 -0.58932,-0.15342 -16.41645,-0.5884 -16.66807,-0.4581 -0.0472,0.0244 -0.005,1.00839 0.0926,2.18654 0.15371,1.8455 0.23436,2.11842 0.58217,1.97099 0.74815,-0.31707 6.33984,-0.64835 8.90752,-0.52772 3.05634,0.14357 3.782,0.48468 3.782,1.77774 0,1.28127 -0.66835,1.62164 -3.18425,1.62164 -1.79563,0 -2.06033,0.0538 -1.93034,0.39259 0.0829,0.21592 0.15065,0.47747 0.15065,0.58121 0,0.10373 0.42857,0.31701 0.95238,0.47395 1.03369,0.3097 1.62355,0.84479 1.88793,1.71262 0.20174,0.66221 -0.90331,1.93328 -1.48627,1.70957 -0.42913,-0.16468 -0.43765,-0.0669 -0.1,1.14882 l 0.25847,0.93074 1.37548,0 1.37549,0 -0.64256,-0.76363 c -0.79403,-0.94366 -0.83355,-2.01747 -0.0994,-2.70145 0.69398,-0.64656 1.45016,-0.64251 2.28254,0.0123 0.69587,0.54737 1.39359,1.69696 1.39359,2.29613 0,0.57695 -0.82291,1.42399 -1.42712,1.46897 -0.6479,0.0482 -0.64775,0.0478 -0.27394,0.64644 0.38818,0.62157 0.0776,1.69203 -0.59768,2.05937 -0.76043,0.41372 -5.93144,0.57116 -7.7329,0.23545 -3.04823,-0.56806 -3.23649,-2.28581 -0.33057,-3.01615 1.21455,-0.30526 1.33445,-0.50046 1.0225,-1.6645 -0.13388,-0.49956 -0.30491,-0.55845 -1.62222,-0.55845 -1.65255,0 -2.81939,-0.47913 -3.06702,-1.25938 -0.24408,-0.76896 0.71376,-1.66446 1.98409,-1.85495 1.42562,-0.21379 1.71799,-0.435 1.53557,-1.16186 -0.1405,-0.55975 -0.31791,-0.62471 -2.30136,-0.84267 l -2.14911,-0.23615 0.15679,2.36726 c 0.0862,1.30199 0.15738,4.52937 0.15807,7.17195 l 0.003,4.80471 0.58301,-0.14633 c 0.32067,-0.0805 2.19145,-0.31121 4.1573,-0.51274 z m -222.4039,2.03238 c -0.60109,-0.30714 -1.32052,-0.8707 -1.59872,-1.25236 -0.46593,-0.63917 -0.4762,-0.74686 -0.13015,-1.36508 0.36179,-0.64635 0.47174,-0.67634 2.97327,-0.81098 4.48266,-0.24126 6.33783,-1.64963 7.55009,-5.73177 0.36987,-1.24549 0.36593,-1.35597 -0.0692,-1.94383 -0.25376,-0.34281 -0.84202,-0.886 -1.30725,-1.20711 -0.74996,-0.51764 -1.04286,-0.56903 -2.58325,-0.45331 -1.77409,0.13329 -3.20747,0.60364 -4.38176,1.43782 -0.83715,0.5947 -1.73419,0.59601 -2.46579,0.003 -1.31852,-1.06767 -0.35116,-3.39857 2.80018,-6.74718 2.58895,-2.75101 4.66786,-5.17951 4.66786,-5.4528 0,-0.14304 -1.19131,-0.24332 -2.9163,-0.24548 -3.25082,-0.004 -4.11404,-0.26034 -4.2311,-1.25603 -0.13507,-1.14881 0.64642,-1.53176 3.39614,-1.66417 1.3504,-0.065 3.2161,-0.0368 4.14598,0.0629 1.46002,0.15637 1.80241,0.29278 2.50947,0.99983 0.97012,0.97012 1.03621,1.70223 0.28656,3.17412 -0.64258,1.26167 -1.39081,2.29156 -3.12457,4.30082 l -1.31029,1.51849 1.801,0.1176 c 2.02751,0.1324 3.37348,0.70486 4.90013,2.08408 1.92361,1.73787 2.43383,3.93874 1.52529,6.57947 -1.58865,4.6175 -3.95618,6.9676 -8.08928,8.02976 -2.02495,0.52038 -3.06436,0.47776 -4.34828,-0.17829 z m 34.74249,-1.60321 c -0.77594,-0.2853 -1.24099,-0.91689 -1.24099,-1.6854 0,-0.44086 0.1925,-0.96361 0.43435,-1.17952 0.23889,-0.21328 1.83045,-0.74829 3.5368,-1.1889 3.60882,-0.93188 5.55904,-1.72834 5.93022,-2.42189 0.39337,-0.73501 -0.2805,-2.71728 -1.34747,-3.96381 -1.14408,-1.33659 -2.15751,-1.61582 -5.06722,-1.39616 l -2.22563,0.16801 -0.87872,-0.87872 -0.87872,-0.87872 0.0119,-2.32064 c 0.006,-1.27636 0.15703,-3.48449 0.33447,-4.90699 0.28709,-2.3015 0.39664,-2.65002 0.99477,-3.16451 0.85909,-0.73895 1.26167,-0.72814 2.04477,0.055 0.58905,0.58906 0.62312,0.74888 0.48939,2.29583 -0.079,0.91448 -0.21359,2.62649 -0.29898,3.80446 l -0.15523,2.14178 2.44677,0.10721 c 2.0105,0.0881 2.6684,0.22151 3.68968,0.74824 2.10874,1.0876 3.46947,2.82752 4.38743,5.61008 0.52905,1.60362 0.55611,2.24346 0.15194,3.59245 -0.63404,2.11625 -2.70061,3.38678 -7.7481,4.76358 -3.15683,0.86109 -3.87406,0.96976 -4.61138,0.69865 z m 119.6309,-0.32032 c -0.98779,-0.98777 -0.59775,-4.63696 0.62645,-5.86115 0.7408,-0.7408 1.50093,-0.7581 1.88372,-0.0429 0.22763,0.42535 0.22171,1.0826 -0.0264,2.91632 -0.17612,1.30196 -0.41337,2.6185 -0.52719,2.92565 -0.26413,0.7127 -1.27395,0.74472 -1.95662,0.0621 z m 28.75917,-0.40967 c -0.22493,-0.27054 -0.36894,-1.26656 -0.42396,-2.93228 l -0.0833,-2.5226 -0.82261,0.82261 c -0.45243,0.45243 -1.03767,0.8226 -1.30055,0.8226 -0.61911,0 -1.55726,-1.00255 -1.55726,-1.66417 0,-0.46932 2.22034,-4.02821 3.4523,-5.53355 0.2793,-0.34126 0.51029,-0.68637 0.51333,-0.76688 0.003,-0.0805 -0.80422,-0.28851 -1.7939,-0.46221 -2.04088,-0.35817 -2.66813,-0.77639 -2.66813,-1.779 0,-0.88098 0.42845,-1.10402 2.54402,-1.32442 l 1.67533,-0.17454 0,-1.48174 c 0,-0.81497 0.16227,-1.79555 0.3606,-2.17908 l 0.36061,-0.69732 -1.86602,-0.14114 c -1.85253,-0.1401 -2.96236,-0.58861 -3.23875,-1.30885 -0.23097,-0.60192 0.13926,-1.56744 0.72029,-1.8784 0.71805,-0.38429 10.58746,-0.33023 11.44989,0.0627 0.70536,0.32138 1.19884,1.27302 0.97998,1.88982 -0.41791,1.17777 -0.7706,1.30598 -3.59293,1.30598 -2.62478,0 -2.98708,0.10172 -2.41163,0.67718 0.15403,0.15403 0.33562,1.05668 0.40354,2.00589 l 0.12348,1.72582 2.01638,0.1733 c 2.18797,0.18804 3.13326,0.71505 3.13326,1.74682 0,1.0062 -0.98786,1.61328 -2.62517,1.61328 l -1.4763,0 1.61831,1.67533 c 0.89006,0.92143 2.25964,2.21942 3.04351,2.88442 1.2036,1.02107 1.42523,1.33667 1.42523,2.02961 0,0.86747 -0.90922,1.85071 -1.70881,1.84795 -1.26574,-0.004 -2.45995,-0.61675 -3.66544,-1.87962 l -1.279,-1.33988 -0.16423,1.5484 c -0.28475,2.68453 -0.65201,4.50762 -1.02441,5.08519 -0.4327,0.6711 -1.61432,0.75412 -2.11766,0.14877 z m -15.05621,-0.25227 c -1.11683,-0.55044 -3.98988,-3.69047 -4.57486,-4.99996 -0.44268,-0.99099 -0.44873,-1.11507 -0.0816,-1.67533 0.81145,-1.23843 2.65286,-0.53345 5.00082,1.91457 0.83234,0.86781 1.69793,1.93478 1.92352,2.37104 1.11638,2.15883 -0.11136,3.45253 -2.26784,2.38968 z m -86.38664,-0.84559 c -1.23899,-0.24365 -3.36013,-1.00805 -4.71433,-1.69892 -1.34363,-0.68545 -2.9535,-2.52745 -3.15699,-3.61219 -0.37657,-2.00729 0.4412,-4.58958 2.12408,-6.7072 l 0.73579,-0.92587 -0.86993,-1.0163 c -0.94527,-1.10435 -1.85073,-3.60108 -1.85073,-5.10325 0,-2.15806 1.82011,-2.77169 3.2151,-1.08392 0.6998,0.84669 1.74883,3.61701 1.74883,4.61841 0,0.22417 0.0346,0.40758 0.0769,0.40758 0.0423,0 0.85207,-0.37793 1.79942,-0.83986 4.15841,-2.02758 8.22402,-2.15029 8.69782,-0.26251 0.24485,0.97558 -0.47953,1.59813 -1.86371,1.60172 -2.09938,0.005 -5.3502,1.1817 -7.35912,2.66284 -1.15099,0.84858 -2.84054,3.7959 -2.84054,4.95512 0,0.93355 0.3788,1.40223 1.66525,2.06032 2.70804,1.38532 6.50664,1.65441 9.00778,0.6381 2.25469,-0.91616 3.63923,-0.93333 3.86146,-0.0479 0.36474,1.45326 -1.76547,3.72487 -4.10165,4.37388 -1.04467,0.29022 -4.65732,0.27847 -6.17548,-0.0201 z m 42.59244,-0.077 c -0.91284,-0.69309 -1.16676,-1.98661 -1.45146,-7.3941 -0.32681,-6.20753 -0.13263,-12.33834 0.42823,-13.52027 0.45408,-0.95689 0.86193,-1.17001 2.32362,-1.21417 0.61429,-0.0185 2.79222,-0.2295 4.83985,-0.46874 4.75412,-0.55549 8.0301,-0.44869 9.48693,0.3093 2.43379,1.26629 3.48577,3.2022 3.23125,5.9463 -0.28473,3.06971 -1.5978,4.71231 -3.13253,3.91868 -0.97526,-0.50434 -1.07649,-0.83611 -1.24684,-4.08672 l -0.14832,-2.83017 -0.99279,-0.35626 c -0.84641,-0.30372 -1.65145,-0.311 -5.46033,-0.0493 -2.45715,0.1688 -4.71884,0.39927 -5.02599,0.51216 -0.51843,0.19055 -0.55844,0.35444 -0.55844,2.2872 l 0,2.08194 4.2814,0.13853 c 2.35476,0.0762 4.70747,0.26623 5.22824,0.42228 1.81454,0.5438 2.45764,1.93509 1.38858,3.00414 -0.41601,0.41602 -0.76034,0.50209 -1.73753,0.43435 -0.67028,-0.0464 -1.21602,-0.0286 -1.21274,0.0396 0.003,0.0683 0.31225,0.68255 0.68662,1.36509 0.64918,1.18355 0.72645,1.23926 1.66954,1.20383 6.15373,-0.23121 5.561,-0.27745 6.21992,0.48534 0.70128,0.81181 0.76385,1.56753 0.19682,2.37707 -0.61153,0.87308 -1.8483,1.26999 -3.9573,1.26999 -1.70789,0 -1.87838,0.0431 -1.71842,0.43435 0.81047,1.98246 0.6272,3.22773 -0.55427,3.76604 -1.35172,0.61588 -2.34746,-0.36808 -3.37162,-3.3317 -0.4092,-1.18408 -0.74191,-1.29303 -4.07883,-1.33572 l -2.29582,-0.0294 -0.002,1.17893 c -0.003,2.94788 -1.48094,4.62245 -3.0364,3.44143 z m 7.18681,-8.40536 c -0.0679,-0.17064 -0.32001,-0.81284 -0.56028,-1.42714 -0.24027,-0.61428 -0.50382,-1.18678 -0.58567,-1.2722 -0.0818,-0.0855 -0.84687,-0.21446 -1.70005,-0.28672 l -1.55123,-0.13138 0,1.71384 0,1.71384 2.26032,0 c 1.70862,0 2.2302,-0.0757 2.13691,-0.31024 z m -31.53632,7.79865 c -0.61672,-0.68145 -0.51771,-2.53922 0.2381,-4.46771 0.35686,-0.91058 1.47021,-3.27509 2.47409,-5.25447 1.00388,-1.97937 2.53347,-5.10664 3.39909,-6.94951 2.25665,-4.80428 3.72375,-6.22464 4.77392,-4.62187 0.35957,0.54876 0.3324,0.75994 -0.38661,3.00451 -0.42534,1.32785 -0.98219,2.90146 -1.23743,3.49692 l -0.46409,1.08267 1.65384,1.8075 c 0.90962,0.99412 2.97033,3.11135 4.57937,4.70495 3.20512,3.17438 3.50398,3.79438 2.35108,4.87748 -0.88306,0.8296 -1.91234,0.69869 -3.31237,-0.42127 -1.33757,-1.06999 -5.02941,-4.84563 -6.1861,-6.32649 l -0.74858,-0.95841 -2.29989,4.64713 c -1.26494,2.55591 -2.56661,4.91382 -2.89258,5.23979 -0.70868,0.70869 -1.38251,0.75685 -1.94184,0.13878 z m 96.75541,-0.27655 c -0.27461,-0.11142 -0.96404,-0.70679 -1.53207,-1.32302 -1.11562,-1.2103 -1.16711,-1.40281 -1.44244,-5.39244 -0.0801,-1.16032 -0.31383,-3.15714 -0.51945,-4.43737 -0.20561,-1.28024 -0.39644,-3.19723 -0.42406,-4.25998 -0.0422,-1.62299 0.0331,-2.04495 0.4707,-2.63623 0.73393,-0.9918 1.85546,-1.07426 2.55283,-0.18769 0.2888,0.36716 0.5251,0.8119 0.5251,0.98831 0,0.2488 0.76566,0.31089 3.4127,0.27678 3.33331,-0.043 3.44661,-0.0269 4.87027,0.69372 0.80165,0.40575 1.61827,0.98299 1.81469,1.28275 0.22649,0.34567 0.44367,1.75536 0.59379,3.85392 0.20697,2.89381 0.34613,4.19353 0.90092,8.41406 0.1628,1.23836 -0.85439,2.46486 -2.04422,2.46486 -0.45758,0 -0.901,0.11168 -0.98537,0.24819 -0.18475,0.29894 -7.46051,0.31151 -8.19339,0.0142 z m 6.51457,-3.85087 c 0.0322,-0.0246 -0.0631,-1.03895 -0.21174,-2.25416 -0.14864,-1.21521 -0.22912,-3.41144 -0.17884,-4.88051 0.0758,-2.21457 0.0271,-2.69602 -0.28467,-2.81728 -0.68335,-0.26573 -3.64862,-0.42845 -4.58987,-0.25187 -0.87431,0.16403 -0.91805,0.21669 -0.80076,0.96416 0.0682,0.43485 0.2999,1.90753 0.51481,3.27261 0.21491,1.36508 0.45888,3.34396 0.54214,4.3975 l 0.15139,1.91553 2.39949,-0.15064 c 1.31973,-0.0829 2.42583,-0.17076 2.45805,-0.19534 z m -145.89883,0.17908 c -1.48452,-1.24915 -3.71327,-6.92027 -3.3274,-8.46671 0.39577,-1.58614 1.80563,-2.01238 2.93168,-0.88632 0.35209,0.35208 0.94248,1.44104 1.31199,2.41991 0.36951,0.97888 1.02987,2.50575 1.46747,3.39305 1.08083,2.19154 1.22644,2.89638 0.74893,3.62514 -0.56591,0.86369 -2.05312,0.82331 -3.13267,-0.085 z m -37.89236,-2.43591 c -0.87669,-0.61404 -1.13683,-1.28796 -0.80575,-2.08727 0.44393,-1.07171 1.29488,-1.32259 4.9007,-1.44478 3.72997,-0.1264 4.85347,0.0164 5.54142,0.70436 0.66881,0.66881 0.63773,2.05603 -0.0606,2.70665 -0.50272,0.46836 -0.85925,0.50607 -4.78462,0.50607 -3.43077,0 -4.34648,-0.0736 -4.79112,-0.38503 z m 47.42497,-0.11375 c -0.29919,-0.12051 -0.71035,-0.47642 -0.91369,-0.79091 -0.5934,-0.91775 -2.88578,-7.43672 -2.88578,-8.20649 0,-0.70708 0.94939,-1.92088 1.50244,-1.92088 0.75687,0 1.93331,0.86335 2.62251,1.92458 0.88381,1.3609 2.24175,4.76937 2.4708,6.2018 0.19292,1.20646 -0.38297,2.46101 -1.28756,2.80495 -0.72862,0.27702 -0.78991,0.27649 -1.50872,-0.013 z m 84.28102,0.0429 c -0.58526,-0.17975 -1.21159,-0.84224 -1.21159,-1.28152 0,-1.50529 2.7972,-1.99664 12.32701,-2.16536 l 7.48717,-0.13256 0.64128,0.64129 c 0.35271,0.3527 0.64128,0.79882 0.64128,0.99138 0,0.65738 -1.00529,1.63815 -1.81018,1.76602 -0.99572,0.15821 -17.60754,0.32432 -18.07497,0.18075 z m 5.04524,-3.90399 c -0.63492,-0.44471 -1.3995,-1.84209 -1.65461,-3.02401 -0.15342,-0.71078 -0.27089,-0.80664 -0.98843,-0.80664 -2.62579,0 -4.11018,-0.66479 -4.11018,-1.84075 0,-1.02545 0.63557,-1.28309 3.36355,-1.36348 l 0.75748,-0.0224 -0.24252,-1.46637 c -0.20472,-1.23782 -0.17681,-1.56666 0.17898,-2.10968 0.93822,-1.43192 2.39371,-0.43757 2.89515,1.97786 l 0.28027,1.35 1.44056,0 c 0.7923,0 1.78958,-0.0698 2.21617,-0.15513 0.70987,-0.14197 0.77562,-0.2373 0.77562,-1.12485 0,-1.28239 0.57309,-2.60328 1.21832,-2.80808 1.28298,-0.4072 2.25644,0.81278 2.25644,2.82786 0,1.11085 -0.0876,1.07297 3.21589,1.39059 1.84078,0.17698 2.9154,0.57191 3.57688,1.31453 0.59162,0.66419 0.38112,1.62317 -0.48016,2.18751 -0.53933,0.35338 -0.813,0.37144 -1.91958,0.12668 -0.70982,-0.15701 -1.98863,-0.35696 -2.8418,-0.44437 l -1.55123,-0.15889 0,1.15223 c 0,1.24693 -0.60541,2.14504 -1.44593,2.14504 -0.7127,0 -1.56012,-1.09516 -1.70957,-2.20938 l -0.13642,-1.01718 -1.27036,0.003 c -2.27194,0.006 -2.35579,0.0726 -2.20383,1.7483 0.10063,1.10982 0.0337,1.60937 -0.27948,2.08742 -0.4822,0.73592 -0.60219,0.75737 -1.34121,0.23974 z m -109.77717,-2.95307 c -0.62325,-0.34449 -2.78684,-3.05157 -3.89865,-4.87797 -1.5762,-2.58927 0.62803,-4.28342 3.10233,-2.38441 1.50872,1.15794 3.57569,3.9999 3.72641,5.12359 0.22208,1.65573 -1.51287,2.92214 -2.93009,2.13879 z m -60.20385,-3.48357 c -1.14714,-1.19722 -2.31951,-3.26296 -2.31951,-4.08701 0,-0.72843 0.8774,-1.49743 1.7085,-1.49743 0.79674,0 2.00516,1.17094 3.2753,3.17375 0.88436,1.39449 0.91311,2.12076 0.11552,2.91835 -0.89126,0.89126 -1.55566,0.76993 -2.77981,-0.50766 z m 5.80753,-1.40832 c -0.6706,-0.24245 -2.14984,-2.46059 -2.89411,-4.33976 -0.3557,-0.8981 -0.0938,-1.63259 0.74164,-2.07969 1.15377,-0.61748 3.26317,0.91032 4.43895,3.21504 0.65587,1.28561 0.64132,2.04551 -0.0513,2.67945 -0.73402,0.67183 -1.39775,0.82771 -2.23518,0.52496 z"
           id="path11865"
           inkscape:connector-curvature="0" />
        <g
           transform="translate(465.4474,-372.93364)"
           id="layer1-9"
           inkscape:label="レイヤー 1"
           style="">
          <g
             id="g4178"
             transform="translate(-4.0820311e-7,4.1450401e-6)"
             style="">
            <g
               id="g4168"
               transform="matrix(2.5031975,0,0,2.5031975,-939.78562,-119.06157)"
               style="">
              <path
                 sodipodi:nodetypes="ccccccccc"
                 inkscape:connector-curvature="0"
                 id="path4147-2"
                 d="m 255.31966,335.22428 c -9.74364,-24.55887 20.35158,-39.65592 46.18854,-29.11186 1.32444,-1.48841 7.6145,-6.51939 7.55953,-16.3671 1.53184,5.56554 1.49046,10.3823 -5.2061,18.11436 3.64964,3.29495 6.11315,7.91289 4.84953,16.68803 5.70447,13.08659 -3.74185,24.81654 -12.24195,14.49663 l 1.47317,-1.26745 c 2.92641,6.0619 15.83423,2.91285 9.84166,-12.72996 -0.0608,-34.3313 -60.77546,-21.81744 -52.46438,10.17735 z"
                 style="fill:#000000;fill-opacity:1;fill-rule:evenodd;stroke:#000000;stroke-width:0.02823984;stroke-linecap:butt;stroke-linejoin:miter;stroke-miterlimit:4;stroke-dasharray:none;stroke-opacity:1" />
              <path
                 sodipodi:nodetypes="ccccccczczcccc"
                 inkscape:connector-curvature="0"
                 id="path4149-0"
                 d="m 306.45845,327.39897 c -4.61542,6.13047 -9.02176,11.93335 -19.74087,16.4335 l 3.93341,-1.15985 c 0.90712,15.52961 -13.53086,14.88457 -14.95199,3.75691 2.6035,-0.12625 5.31048,-0.54746 7.28687,-1.68935 -11.66111,0.94 -17.27075,0.70624 -25.98786,-8.42765 1.80931,4.3313 6.33646,7.94009 8.29978,8.44116 -1.82484,4.32359 -5.70112,3.62115 -8.17718,2.143 -2.47607,-1.47817 -2.64907,-6.32012 -2.28691,-13.21665 -2.03345,6.76534 -1.58717,13.07261 2.01962,14.77961 3.60678,1.70699 7.52937,1.91095 10.09636,-3.01348 l 6.60611,1.10943 c -0.0208,12.35481 20.04782,15.7461 19.26361,-4.53854 9.96114,-4.69295 12.76024,-10.12373 13.63905,-14.61809 z"
                 style="fill:#000000;fill-opacity:1;fill-rule:evenodd;stroke:#000000;stroke-width:0.02823984;stroke-linecap:butt;stroke-linejoin:miter;stroke-miterlimit:4;stroke-dasharray:none;stroke-opacity:1" />
              <path
                 sodipodi:nodetypes="ssccs"
                 inkscape:connector-curvature="0"
                 id="rect4155"
                 d="m 272.46522,323.14785 c 0.12131,-0.97965 2.33859,-0.97839 2.22083,0 -0.45526,3.78235 -0.53488,5.90201 -0.53488,9.35509 0,0.88957 -2.22083,0.92272 -2.22083,0 0,-3.25412 0.0781,-5.66642 0.53488,-9.35509 z"
                 style="fill:#000000;fill-opacity:1;fill-rule:evenodd;stroke:#000000;stroke-width:0.02624361;stroke-linecap:butt;stroke-linejoin:miter;stroke-miterlimit:4;stroke-dasharray:none;stroke-opacity:1" />
              <use
                 height="100%"
                 width="100%"
                 transform="translate(-9.485078,-2.6387056)"
                 id="use4158"
                 xlink:href="#rect4155"
                 y="0"
                 x="0"
                 style="" />
              <path
                 sodipodi:nodetypes="ccc"
                 inkscape:connector-curvature="0"
                 id="path4160"
                 d="m 262.33436,333.56203 c 1.49211,-0.74754 8.41899,1.30466 10.17159,3.88164 -2.84491,5.26762 -11.10275,0.80641 -10.17159,-3.88164 z"
                 style="fill:#ff7878;fill-opacity:1;fill-rule:evenodd;stroke:none;stroke-width:1;stroke-linecap:butt;stroke-linejoin:miter;stroke-miterlimit:4;stroke-dasharray:none;stroke-opacity:1" />
              <path
                 inkscape:connector-curvature="0"
                 id="path4162"
                 d="m 285.20506,304.58951 c -1.65917,-0.0133 -3.31915,0.0836 -4.95667,0.35967 -6.95908,1.06373 -13.77074,3.97573 -18.85877,8.92091 -2.82557,2.71832 -5.03317,6.1264 -6.09869,9.91638 -1.02211,3.64098 -0.95655,7.53939 -0.0389,11.19465 -0.0134,0.0556 -0.15185,-0.35448 -0.20443,-0.47687 -0.0655,-0.0813 -0.091,-0.42811 -0.22855,-0.31373 -0.11586,1.55365 -0.12515,3.11644 -0.12939,4.67466 0.046,2.06449 0.13098,4.19134 0.90539,6.13268 0.35562,0.9026 1.01367,1.69167 1.90158,2.10697 1.29087,0.69044 2.79279,1.08861 4.25671,0.8474 1.4224,-0.25264 2.59048,-1.29671 3.23081,-2.56106 0.08,-0.21873 0.29949,-0.43445 0.28223,-0.6573 -1.10123,-0.33547 -2.06217,-1.02624 -2.96157,-1.72737 -1.99394,-1.65403 -3.79019,-3.6123 -4.95002,-5.9472 -0.1051,-0.20637 -0.21202,-0.40913 -0.29631,-0.62423 1.27079,1.16076 2.45537,2.41783 3.7952,3.5032 2.55746,2.13732 5.54465,3.83381 8.82036,4.55538 2.40966,0.56948 4.89844,0.64727 7.36368,0.59418 1.96818,-0.0253 3.93887,-0.20702 5.89638,-0.33061 -2.19207,1.20751 -4.73274,1.49845 -7.19332,1.67792 -0.0625,0.31456 0.089,0.67634 0.13263,1.00559 0.53589,2.63614 2.10144,5.18315 4.55375,6.41898 1.77451,0.91964 3.98794,0.97674 5.76664,0.0361 2.00744,-1.01844 3.2772,-3.06603 3.88142,-5.17656 0.48389,-1.59611 0.6104,-3.27052 0.60382,-4.93064 -0.0102,-0.35052 0.0304,-0.71094 -0.0329,-1.05585 -0.28115,-0.0258 -0.58057,0.14936 -0.86526,0.19753 -0.94283,0.2642 -1.87641,0.56198 -2.82536,0.80415 5.055,-2.13472 9.78839,-5.14543 13.58402,-9.13431 2.12052,-2.19127 3.95581,-4.63196 5.82,-7.03836 0.13271,-0.20133 0.0237,0.12843 0.0159,0.20123 -0.63189,2.99045 -2.17323,5.7575 -4.2988,7.94761 -1.03986,1.11289 -2.24203,2.05207 -3.43812,2.98592 -0.10943,0.15355 0.16204,0.29309 0.23559,0.41022 1.24644,1.26552 3.13422,1.7833 4.86593,1.45433 2.22939,-0.36243 4.08621,-2.05972 4.90169,-4.1306 1.02329,-2.59421 0.81542,-5.49305 0.15877,-8.15069 -0.26786,-1.14791 -0.68395,-2.25829 -1.03722,-3.37628 0.029,-3.47525 -0.6929,-6.99502 -2.31685,-10.08261 -1.12698,-2.16197 -2.75824,-4.03517 -4.65245,-5.55911 -3.0441,-2.40363 -6.79257,-3.76654 -10.59953,-4.35014 -1.64831,-0.29675 -3.31927,-0.3324 -4.98935,-0.32217 z m -21.02455,15.1991 c 0.40446,-0.0142 1.0094,0.15808 1.00374,0.66079 -0.16802,1.7407 -0.37705,3.48037 -0.43682,5.23028 -0.0848,1.44887 -0.0304,2.9158 -0.14085,4.35523 -0.0818,0.32058 -0.48847,0.39866 -0.76608,0.46863 -0.47929,0.0698 -1.1291,0.006 -1.35092,-0.49138 -0.0692,-1.27639 0.0114,-2.57554 0.0357,-3.85954 0.0633,-1.90592 0.21582,-3.81338 0.48778,-5.69928 0.10374,-0.50095 0.73087,-0.65759 1.16744,-0.66473 z m 9.47608,2.64355 c 0.41102,-0.0172 1.00279,0.13844 1.01113,0.6404 -0.15874,1.77903 -0.38287,3.55952 -0.44203,5.34899 -0.0648,1.43432 -0.0784,2.87023 -0.10681,4.30557 -0.4128,0.48196 -1.14746,0.51526 -1.71545,0.33752 -0.25504,-0.11824 -0.53483,-0.32144 -0.44408,-0.64029 -0.0205,-3.1113 0.0851,-6.23775 0.53814,-9.31526 0.0692,-0.41732 0.53118,-0.59953 0.89707,-0.66856 0.0871,-0.008 0.17468,-0.008 0.26209,-0.008 z m -9.9647,11.21498 c 1.70154,0.0528 3.35687,0.59376 4.92078,1.23954 1.28269,0.56827 2.57129,1.27529 3.43721,2.40755 -0.0586,0.35272 -0.35058,0.63338 -0.55659,0.91686 -0.70076,0.82291 -1.75542,1.36172 -2.84289,1.33951 -1.15961,0.10464 -2.30153,-0.30047 -3.28433,-0.89403 -1.27556,-0.81002 -2.43682,-2.07383 -2.61706,-3.63063 -0.0156,-0.4005 -0.0983,-0.85229 0.0711,-1.22407 0.26845,-0.13289 0.57859,-0.14964 0.87186,-0.15473 z"
                 style="fill:#ffffff;fill-opacity:1;stroke:none;stroke-width:1px;stroke-linecap:butt;stroke-linejoin:miter;stroke-opacity:1" />
            </g>
          </g>
        </g>
        <path
           sodipodi:type="star"
           style="fill:#0044ff;fill-opacity:1;fill-rule:evenodd;stroke:#7d92ff;stroke-width:5.24049425;stroke-linecap:butt;stroke-linejoin:miter;stroke-miterlimit:4;stroke-dasharray:none;stroke-opacity:1"
           id="path11891"
           sodipodi:sides="5"
           sodipodi:cx="233.03572"
           sodipodi:cy="194.1479"
           sodipodi:r1="40.131321"
           sodipodi:r2="16.052528"
           sodipodi:arg1="0.89258076"
           sodipodi:arg2="1.5208993"
           inkscape:flatsided="false"
           inkscape:rounded="0"
           inkscape:randomized="0"
           d="m 258.21429,225.3979 -24.37793,-15.21745 -22.74055,17.57048 6.93946,-27.88724 -23.73773,-16.19797 28.66675,-2.01782 8.06983,-27.58137 10.77756,26.64016 28.72516,-0.84825 -22.00585,18.48234 z"
           inkscape:transform-center-x="-0.15606338"
           inkscape:transform-center-y="-2.7762454"
           transform="matrix(0.76160552,0.05063358,-0.05063358,0.76160552,63.590599,33.969507)" />
      </g>
    </g>
    <text
       xml:space="preserve"
       style="font-style:italic;font-variant:normal;font-weight:normal;font-stretch:normal;font-size:15.2127676px;line-height:100%;font-family:'Ubuntu Mono';-inkscape-font-specification:'Ubuntu Mono Italic';letter-spacing:0px;word-spacing:0px;writing-mode:lr-tb;opacity:1;fill:#989898;fill-opacity:1;stroke:none;stroke-width:1px;stroke-linecap:butt;stroke-linejoin:miter;stroke-opacity:1"
       x="56.252819"
       y="158.97665"
       id="text4603"
       sodipodi:linespacing="100%"><tspan
         sodipodi:role="line"
         id="tspan4605"
         x="56.252819"
         y="158.97665"
         style="letter-spacing:-1.5px">denp onios bribyanastag</tspan></text>
    <text
       xml:space="preserve"
       style="font-style:normal;font-variant:normal;font-weight:normal;font-stretch:normal;font-size:36.14578247px;line-height:100%;font-family:'Ubuntu Mono';-inkscape-font-specification:'Ubuntu Mono';letter-spacing:0px;word-spacing:0px;writing-mode:lr-tb;opacity:1;fill:#989898;fill-opacity:1;stroke:none;stroke-width:1px;stroke-linecap:butt;stroke-linejoin:miter;stroke-opacity:1"
       x="55.807133"
       y="144.32347"
       id="text4607"
       sodipodi:linespacing="100%"><tspan
         sodipodi:role="line"
         x="55.807133"
         y="144.32347"
         id="tspan4611">GLNR</tspan></text>
    <text
       xml:space="preserve"
       style="font-style:normal;font-variant:normal;font-weight:normal;font-stretch:normal;font-size:24.29133797px;line-height:125%;font-family:'Ubuntu Mono';-inkscape-font-specification:'Ubuntu Mono';letter-spacing:0px;word-spacing:0px;writing-mode:lr-tb;fill:#656565;fill-opacity:1;stroke:none;stroke-width:1px;stroke-linecap:butt;stroke-linejoin:miter;stroke-opacity:1"
       x="299.39075"
       y="151.14999"
       id="text4155"
       sodipodi:linespacing="125%"><tspan
         sodipodi:role="line"
         id="tspan4157"
         x="299.39075"
         y="151.14999"
         style="font-style:normal;font-variant:normal;font-weight:bold;font-stretch:normal;font-size:32.38845444px;font-family:'Ubuntu Mono';-inkscape-font-specification:'Ubuntu Mono Bold';fill:#656565;fill-opacity:1">Гловлайтская Народная Республика</tspan></text>
  </g>
</svg>
